<svg width="43" height="39" viewBox="0 0 43 39" fill="none" xmlns="http://www.w3.org/2000/svg">
<path d="M30.3525 22.2901C40.5536 22.6954 39.8735 17.5619 38.2583 14.9446C38.2583 14.9446 41.5938 16.3838 42.3388 20.5171C43.5038 26.9794 31.6277 30.902 31.6277 30.902C32.2397 27.4572 31.0326 23.7254 30.3525 22.2901Z" fill="#FF4D29"/>
<path d="M9.18541 16.9696C1.84065 15.3485 5.61499 10.6373 7.40025 9.62411C-4.63706 12.461 1.53455 22.7953 6.38016 24.5683C6.17614 21.1235 8.16534 18.0672 9.18541 16.9696Z" fill="#FF4D29"/>
<path d="M38.0033 21.5293C38.0033 30.9018 30.3532 38.4998 20.9165 38.4998C11.4797 38.4998 3.82959 30.9018 3.82959 21.5293C3.82959 12.1567 11.4797 4.55872 20.9165 4.55872C30.3532 4.55872 38.0033 12.1567 38.0033 21.5293Z" fill="#FF4D29"/>
<path d="M10.9934 0.0104736C17.1141 -0.19216 20.3444 2.37558 21.1945 3.5576C14.2577 3.76033 10.9934 5.75171 10.2283 6.84922C9.82027 3.80973 10.5683 1.0236 10.9934 0.0104736Z" fill="#FF4D29"/>
</svg>
