<svg width="333" height="100" viewBox="0 0 333 100" fill="none" xmlns="http://www.w3.org/2000/svg">
<path fill-rule="evenodd" clip-rule="evenodd" d="M16.8838 16.5837C18.3116 9.76687 24.3228 4.88434 31.2877 4.88434H130.107H202.473H301.293C308.257 4.88434 314.268 9.76653 315.695 16.5829C316.49 20.3744 318.904 23.5629 321.525 26.4148C325.581 30.8268 328.057 36.7137 328.057 43.1789C328.057 49.6445 325.581 55.5318 321.525 59.9438C318.902 62.7954 316.49 65.9835 315.695 69.7747C314.268 76.5903 308.257 81.4719 301.294 81.4719H225.864C222.247 81.4719 220.438 81.4719 218.308 81.8137C216.179 82.1555 206.185 85.4473 186.201 92.0307C180.273 93.9833 173.729 95.0662 166.851 95.0662C159.972 95.0662 153.428 93.9833 147.5 92.0307C127.516 85.4473 117.522 82.1555 115.393 81.8137C113.263 81.4719 111.454 81.4719 107.837 81.4719H31.2845C24.3214 81.4719 18.3118 76.5907 16.8844 69.7757C16.0905 65.9848 13.6776 62.7968 11.0561 59.9456C6.99965 55.5335 4.52295 49.646 4.52295 43.18C4.52295 36.7149 6.999 30.8282 11.0546 26.4163C13.6763 23.5641 16.0897 20.3754 16.8838 16.5837Z" fill="#FF4D29"/>
<mask id="mask0_50_168" style="mask-type:luminance" maskUnits="userSpaceOnUse" x="0" y="0" width="333" height="100">
<path d="M332.566 0.375244H0.0135498V99.5752H332.566V0.375244Z" fill="white"/>
</mask>
<g mask="url(#mask0_50_168)">
<path d="M130.107 0.375244H31.2873V9.39343H130.107V0.375244ZM202.473 0.375244H130.107V9.39343H202.473V0.375244ZM301.293 0.375244H202.473V9.39343H301.293V0.375244ZM332.566 43.1789C332.566 35.5397 329.635 28.5746 324.844 23.3633L318.204 29.4663C321.525 33.0789 323.548 37.8877 323.548 43.1789H332.566ZM324.843 62.9955C329.634 57.784 332.566 50.8187 332.566 43.1789H323.548C323.548 48.4704 321.525 53.2795 318.204 56.8922L324.843 62.9955ZM225.864 85.981H301.294V76.9628H225.864V85.981ZM184.789 87.748C179.325 89.5479 173.258 90.5571 166.85 90.5571V99.5752C174.2 99.5752 181.221 98.4185 187.612 96.3134L184.789 87.748ZM166.85 90.5571C160.443 90.5571 154.376 89.5479 148.911 87.748L146.089 96.3134C152.479 98.4185 159.5 99.5752 166.85 99.5752V90.5571ZM31.2842 85.981H107.837V76.9628H31.2842V85.981ZM0.0134277 43.18C0.0134277 50.8201 2.94486 57.7858 7.73634 62.9974L14.3753 56.8938C11.0538 53.2811 9.0318 48.4718 9.0318 43.18H0.0134277ZM7.73445 23.3647C2.94409 28.5761 0.0134277 35.541 0.0134277 43.18H9.0318C9.0318 37.889 11.0532 33.0802 14.374 29.4677L7.73445 23.3647ZM31.2842 76.9628C26.4552 76.9628 22.2875 73.5777 21.2976 68.8513L12.4707 70.7C14.3355 79.6038 22.187 85.981 31.2842 85.981V76.9628ZM148.911 87.748C138.926 84.459 131.411 81.9834 126.128 80.2881C123.489 79.441 121.377 78.7796 119.78 78.3057C118.285 77.8621 116.979 77.5013 116.107 77.3615L114.678 86.2659C114.676 86.2653 114.69 86.2678 114.729 86.2753C114.765 86.2827 114.815 86.2935 114.882 86.3086C115.016 86.3393 115.193 86.3827 115.418 86.442C115.87 86.5608 116.465 86.7285 117.214 86.9513C118.715 87.3964 120.751 88.0335 123.373 88.8751C128.615 90.5569 136.089 93.019 146.089 96.3134L148.911 87.748ZM107.837 85.981C111.545 85.981 112.972 85.9921 114.678 86.2659L116.107 77.3615C113.554 76.9519 111.363 76.9628 107.837 76.9628V85.981ZM225.864 76.9628C222.337 76.9628 220.146 76.9519 217.593 77.3615L219.023 86.2659C220.728 85.9921 222.155 85.981 225.864 85.981V76.9628ZM187.612 96.3134C197.612 93.019 205.086 90.5569 210.328 88.8751C212.95 88.0335 214.986 87.3964 216.486 86.9513C217.236 86.7285 217.83 86.5608 218.282 86.442C218.507 86.3827 218.684 86.3393 218.818 86.3086C218.885 86.2935 218.936 86.2827 218.972 86.2753C219.01 86.2678 219.025 86.2653 219.023 86.2659L217.593 77.3615C216.723 77.5013 215.415 77.8621 213.92 78.3057C212.323 78.7796 210.212 79.441 207.573 80.2881C202.289 81.9834 194.774 84.459 184.789 87.748L187.612 96.3134ZM311.282 68.8503C310.292 73.5773 306.123 76.9628 301.294 76.9628V85.981C310.392 85.981 318.244 79.6034 320.108 70.6989L311.282 68.8503ZM311.282 17.5073C312.338 22.5498 315.472 26.4935 318.204 29.4663L324.844 23.3633C322.334 20.6323 320.64 18.1991 320.109 15.6587L311.282 17.5073ZM14.374 29.4677C17.1069 26.4947 20.2407 22.5508 21.2969 17.5081L12.4701 15.6595C11.9379 18.2001 10.245 20.6336 7.73445 23.3647L14.374 29.4677ZM301.293 9.39343C306.123 9.39343 310.292 12.7796 311.282 17.5073L320.109 15.6587C318.244 6.75348 310.391 0.375244 301.293 0.375244V9.39343ZM318.204 56.8922C315.472 59.8647 312.338 63.8081 311.282 68.8503L320.108 70.6989C320.64 68.1589 322.334 65.726 324.843 62.9955L318.204 56.8922ZM21.2976 68.8513C20.2415 63.8094 17.1081 59.8662 14.3753 56.8938L7.73634 62.9974C10.2464 65.7275 11.9388 68.1603 12.4707 70.7L21.2976 68.8513ZM31.2873 0.375244C22.1884 0.375244 14.3353 6.7538 12.4701 15.6595L21.2969 17.5081C22.2872 12.78 26.4565 9.39343 31.2873 9.39343V0.375244Z" fill="#FF4D29"/>
</g>
<path fill-rule="evenodd" clip-rule="evenodd" d="M121.822 75.4045L31.4745 78.6602C24.4904 78.6602 18.4627 74.0989 17.031 67.7305C16.2346 64.1881 13.8146 61.2093 11.1855 58.5449C7.11779 54.4226 4.63429 48.9221 4.63429 42.8812C4.63429 36.8403 7.11779 31.3398 11.1855 27.2175C13.8146 24.5531 16.2346 21.5742 17.031 18.0319C18.4627 11.6635 24.4904 7.10222 31.4745 7.10222H302.259C309.243 7.10222 315.271 11.6635 316.702 18.0319C317.498 21.5742 319.919 24.5531 322.548 27.2175C326.615 31.3398 329.099 36.8403 329.099 42.8812C329.099 48.9221 326.615 54.4226 322.548 58.5449C319.919 61.2093 317.498 64.1881 316.702 67.7305C315.271 74.0989 309.243 78.6602 302.259 78.6602L211.544 75.4045H203.481H197.327C197.327 75.4045 196.355 79.0084 195.313 81.1428C192.635 86.6319 188.47 88.8465 183.86 91.2976C181.699 92.4468 179.441 93.6479 177.191 95.2629C186.879 93.4158 195.403 89.0613 201.706 83.0725C202.186 82.6162 202.818 82.3508 203.481 82.3508H305.064C312.222 82.3508 318.401 77.3326 319.868 70.3265C320.685 66.4294 323.165 63.1521 325.86 60.2209C330.029 55.6857 332.575 49.6343 332.575 42.9884C332.575 36.3425 330.029 30.2912 325.86 25.756C323.165 22.8247 320.685 19.5474 319.868 15.6504C318.401 8.64414 312.222 3.62604 305.064 3.62604H27.5102C20.3516 3.62604 14.1732 8.64414 12.7057 15.6504C11.8894 19.5474 9.40887 22.8247 6.71403 25.756C2.54466 30.2912 -0.000915527 36.3425 -0.000915527 42.9884C-0.000915527 49.6343 2.54466 55.6857 6.71403 60.2209C9.40887 63.1521 11.8894 66.4294 12.7057 70.3265C14.1732 77.3326 20.3516 82.3508 27.5102 82.3508H129.093C130.311 82.3508 131.471 82.8428 132.37 83.6635C138.783 89.51 147.359 93.7119 157.056 95.4102C154.81 93.7515 152.655 92.4685 150.599 91.2461C146.204 88.631 142.273 86.2924 138.934 81.1428C137.556 79.018 135.914 75.4045 135.914 75.4045H129.093H121.822Z" fill="white"/>
<g style="mix-blend-mode:hard-light">
<path fill-rule="evenodd" clip-rule="evenodd" d="M161.377 81.3849C164.159 81.3537 166.405 79.0951 166.416 76.3092C166.427 79.0951 168.673 81.3537 171.454 81.3849C168.673 81.4162 166.427 83.6749 166.416 86.4609C166.405 83.6749 164.159 81.4162 161.377 81.3849Z" fill="white"/>
</g>
<path fill-rule="evenodd" clip-rule="evenodd" d="M157.015 81.1238C162.269 81.0647 166.513 76.7974 166.534 71.5339C166.555 76.7974 170.799 81.0647 176.054 81.1238C170.799 81.1828 166.555 85.4503 166.534 90.7139C166.513 85.4503 162.269 81.1828 157.015 81.1238Z" fill="white"/>
</svg>
