<svg width="333" height="100" viewBox="0 0 333 100" fill="none" xmlns="http://www.w3.org/2000/svg">
<path fill-rule="evenodd" clip-rule="evenodd" d="M17.3077 16.5837C18.7355 9.76687 24.7467 4.88434 31.7116 4.88434H130.531H202.897H301.717C308.681 4.88434 314.692 9.76653 316.119 16.5829C316.914 20.3744 319.327 23.5629 321.948 26.4148C326.004 30.8268 328.481 36.7137 328.481 43.1789C328.481 49.6445 326.004 55.5318 321.948 59.9438C319.326 62.7954 316.914 65.9835 316.119 69.7747C314.692 76.5903 308.681 81.4719 301.718 81.4719H226.288C222.671 81.4719 220.862 81.4719 218.732 81.8137C216.603 82.1555 206.609 85.4473 186.624 92.0307C180.697 93.9833 174.153 95.0662 167.274 95.0662C160.396 95.0662 153.852 93.9833 147.924 92.0307C127.94 85.4473 117.946 82.1555 115.817 81.8137C113.687 81.4719 111.878 81.4719 108.261 81.4719H31.7085C24.7454 81.4719 18.7358 76.5907 17.3084 69.7757C16.5144 65.9848 14.1016 62.7968 11.4801 59.9456C7.4236 55.5335 4.9469 49.646 4.9469 43.18C4.9469 36.7149 7.42295 30.8282 11.4785 26.4163C14.1002 23.5641 16.5136 20.3754 17.3077 16.5837Z" fill="#6439FF"/>
<mask id="mask0_0_37" style="mask-type:luminance" maskUnits="userSpaceOnUse" x="0" y="0" width="333" height="100">
<path d="M332.99 0.375244H0.4375V99.5752H332.99V0.375244Z" fill="white"/>
</mask>
<g mask="url(#mask0_0_37)">
<path d="M130.531 0.375244H31.7113V9.39343H130.531V0.375244ZM202.897 0.375244H130.531V9.39343H202.897V0.375244ZM301.716 0.375244H202.897V9.39343H301.716V0.375244ZM332.99 43.1789C332.99 35.5397 330.059 28.5746 325.268 23.3633L318.628 29.4663C321.949 33.0789 323.972 37.8877 323.972 43.1789H332.99ZM325.267 62.9955C330.058 57.784 332.99 50.8187 332.99 43.1789H323.972C323.972 48.4704 321.949 53.2795 318.628 56.8922L325.267 62.9955ZM226.288 85.981H301.718V76.9628H226.288V85.981ZM185.213 87.748C179.749 89.5479 173.682 90.5571 167.274 90.5571V99.5752C174.624 99.5752 181.645 98.4185 188.036 96.3134L185.213 87.748ZM167.274 90.5571C160.867 90.5571 154.799 89.5479 149.335 87.748L146.513 96.3134C152.903 98.4185 159.924 99.5752 167.274 99.5752V90.5571ZM31.7081 85.981H108.261V76.9628H31.7081V85.981ZM0.437378 43.18C0.437378 50.8201 3.36881 57.7858 8.16029 62.9974L14.7993 56.8938C11.4777 53.2811 9.45575 48.4718 9.45575 43.18H0.437378ZM8.1584 23.3647C3.36804 28.5761 0.437378 35.541 0.437378 43.18H9.45575C9.45575 37.889 11.4772 33.0802 14.7979 29.4677L8.1584 23.3647ZM31.7081 76.9628C26.8791 76.9628 22.7114 73.5777 21.7215 68.8513L12.8947 70.7C14.7595 79.6038 22.611 85.981 31.7081 85.981V76.9628ZM149.335 87.748C139.35 84.459 131.835 81.9834 126.552 80.2881C123.913 79.441 121.801 78.7796 120.204 78.3057C118.709 77.8621 117.403 77.5013 116.531 77.3615L115.102 86.2659C115.099 86.2653 115.114 86.2678 115.152 86.2753C115.189 86.2827 115.239 86.2935 115.306 86.3086C115.44 86.3393 115.617 86.3827 115.842 86.442C116.294 86.5608 116.888 86.7285 117.638 86.9513C119.139 87.3964 121.174 88.0335 123.797 88.8751C129.038 90.5569 136.512 93.019 146.513 96.3134L149.335 87.748ZM108.261 85.981C111.969 85.981 113.396 85.9921 115.102 86.2659L116.531 77.3615C113.978 76.9519 111.787 76.9628 108.261 76.9628V85.981ZM226.288 76.9628C222.761 76.9628 220.57 76.9519 218.017 77.3615L219.446 86.2659C221.152 85.9921 222.579 85.981 226.288 85.981V76.9628ZM188.036 96.3134C198.036 93.019 205.51 90.5569 210.752 88.8751C213.374 88.0335 215.41 87.3964 216.91 86.9513C217.66 86.7285 218.254 86.5608 218.706 86.442C218.931 86.3827 219.108 86.3393 219.242 86.3086C219.309 86.2935 219.36 86.2827 219.396 86.2753C219.434 86.2678 219.449 86.2653 219.446 86.2659L218.017 77.3615C217.147 77.5013 215.839 77.8621 214.344 78.3057C212.747 78.7796 210.636 79.441 207.997 80.2881C202.713 81.9834 195.198 84.459 185.213 87.748L188.036 96.3134ZM311.705 68.8503C310.716 73.5773 306.547 76.9628 301.718 76.9628V85.981C310.816 85.981 318.668 79.6034 320.532 70.6989L311.705 68.8503ZM311.705 17.5073C312.762 22.5498 315.896 26.4935 318.628 29.4663L325.268 23.3633C322.758 20.6323 321.064 18.1991 320.533 15.6587L311.705 17.5073ZM14.7979 29.4677C17.5308 26.4947 20.6647 22.5508 21.7208 17.5081L12.894 15.6595C12.3618 18.2001 10.669 20.6336 8.1584 23.3647L14.7979 29.4677ZM301.716 9.39343C306.547 9.39343 310.716 12.7796 311.705 17.5073L320.533 15.6587C318.668 6.75348 310.815 0.375244 301.716 0.375244V9.39343ZM318.628 56.8922C315.896 59.8647 312.762 63.8081 311.705 68.8503L320.532 70.6989C321.064 68.1589 322.757 65.726 325.267 62.9955L318.628 56.8922ZM21.7215 68.8513C20.6655 63.8094 17.532 59.8662 14.7993 56.8938L8.16029 62.9974C10.6704 65.7275 12.3627 68.1603 12.8947 70.7L21.7215 68.8513ZM31.7113 0.375244C22.6123 0.375244 14.7592 6.7538 12.894 15.6595L21.7208 17.5081C22.7112 12.78 26.8805 9.39343 31.7113 9.39343V0.375244Z" fill="#6439FF"/>
</g>
<path fill-rule="evenodd" clip-rule="evenodd" d="M122.246 75.4045L31.8984 78.6602C24.9143 78.6602 18.8867 74.0989 17.455 67.7305C16.6585 64.1881 14.2385 61.2093 11.6094 58.5449C7.54174 54.4226 5.05824 48.9221 5.05824 42.8812C5.05824 36.8403 7.54174 31.3398 11.6094 27.2175C14.2385 24.5531 16.6585 21.5742 17.455 18.0319C18.8867 11.6635 24.9143 7.10222 31.8984 7.10222H302.683C309.667 7.10222 315.695 11.6635 317.126 18.0319C317.922 21.5742 320.343 24.5531 322.972 27.2175C327.039 31.3398 329.523 36.8403 329.523 42.8812C329.523 48.9221 327.039 54.4226 322.972 58.5449C320.343 61.2093 317.922 64.1881 317.126 67.7305C315.695 74.0989 309.667 78.6602 302.683 78.6602L211.968 75.4045H203.905H197.751C197.751 75.4045 196.779 79.0084 195.737 81.1428C193.059 86.6319 188.894 88.8465 184.284 91.2976C182.123 92.4468 179.865 93.6479 177.615 95.2629C187.303 93.4158 195.827 89.0613 202.13 83.0725C202.61 82.6162 203.242 82.3508 203.905 82.3508H305.488C312.646 82.3508 318.825 77.3326 320.292 70.3265C321.109 66.4294 323.588 63.1521 326.284 60.2209C330.453 55.6857 332.999 49.6343 332.999 42.9884C332.999 36.3425 330.453 30.2912 326.284 25.756C323.588 22.8247 321.109 19.5474 320.292 15.6504C318.825 8.64414 312.646 3.62604 305.488 3.62604H27.9341C20.7755 3.62604 14.5971 8.64414 13.1296 15.6504C12.3134 19.5474 9.83282 22.8247 7.13798 25.756C2.96861 30.2912 0.423035 36.3425 0.423035 42.9884C0.423035 49.6343 2.96861 55.6857 7.13798 60.2209C9.83282 63.1521 12.3134 66.4294 13.1296 70.3265C14.5971 77.3326 20.7755 82.3508 27.9341 82.3508H129.517C130.735 82.3508 131.895 82.8428 132.794 83.6635C139.207 89.51 147.783 93.7119 157.48 95.4102C155.234 93.7515 153.079 92.4685 151.023 91.2461C146.628 88.631 142.697 86.2924 139.358 81.1428C137.98 79.018 136.338 75.4045 136.338 75.4045H129.517H122.246Z" fill="#FFD847"/>
<g style="mix-blend-mode:hard-light">
<path fill-rule="evenodd" clip-rule="evenodd" d="M161.801 81.3849C164.583 81.3537 166.829 79.0951 166.84 76.3092C166.851 79.0951 169.097 81.3537 171.878 81.3849C169.097 81.4162 166.851 83.6749 166.84 86.4609C166.829 83.6749 164.583 81.4162 161.801 81.3849Z" fill="#FFD847"/>
</g>
<path fill-rule="evenodd" clip-rule="evenodd" d="M157.439 81.1238C162.693 81.0647 166.937 76.7974 166.958 71.5339C166.979 76.7974 171.223 81.0647 176.478 81.1238C171.223 81.1828 166.979 85.4503 166.958 90.7139C166.937 85.4503 162.693 81.1828 157.439 81.1238Z" fill="#FFD847"/>
</svg>
