<svg width="277" height="109" viewBox="0 0 277 109" fill="none" xmlns="http://www.w3.org/2000/svg">
<path d="M123.097 13.668C122.608 13.668 122.2 13.7964 121.853 14.042C121.502 14.2905 121.188 14.6776 120.926 15.2344C120.396 16.3602 120.11 18.1047 120.11 20.5156C120.11 22.7169 120.441 24.294 121.046 25.3067C121.63 26.2827 122.482 26.7617 123.663 26.7617H126.226V14.8565C125.617 14.0737 124.737 13.668 123.522 13.668H123.097ZM132.931 29.1582C132.931 29.597 132.817 30.0076 132.511 30.3037C132.208 30.5971 131.793 30.7041 131.35 30.7041H121.29C119.541 30.7041 118.017 30.1797 116.744 29.1221C115.479 28.0706 114.488 26.5152 113.75 24.4951L113.739 24.4639L113.732 24.4307C113.469 23.1411 113.333 22.0579 113.333 21.1895V19.3828C113.333 17.1651 113.767 15.2702 114.659 13.7217C115.555 12.1688 116.897 10.9926 118.661 10.1904L118.681 10.1817L118.701 10.1748C119.785 9.80533 120.885 9.61921 121.998 9.61916C123.648 9.61916 125.065 9.99824 126.226 10.7754V7.1631C126.226 5.65762 125.541 4.45849 124.096 3.53908L123.888 3.40627V3.0547C123.888 2.75217 123.969 2.45331 124.189 2.22267C124.395 2.00624 124.671 1.9063 124.958 1.87111L131.653 0.560562L131.696 0.551773H132.102L132.146 0.560562C132.324 0.596205 132.499 0.670099 132.644 0.80275C132.791 0.937704 132.879 1.10857 132.92 1.29201L132.931 1.34084V29.1582Z" fill="white" stroke="#6439FF" stroke-width="0.896482"/>
<path d="M97.8562 11.2356C99.1663 10.2753 100.71 9.79621 102.472 9.79616H102.485L102.498 9.79713L102.895 9.82448C104.855 9.98376 106.456 10.4873 107.661 11.3704C108.876 12.2609 109.653 13.5109 110.004 15.0872L110.068 15.4065L110.072 15.4241L110.073 15.4417C110.168 16.3901 110.217 17.1392 110.218 17.6809L110.253 26.6419C110.299 27.5962 110.149 28.4174 109.753 29.0647C109.346 29.7277 108.712 30.158 107.899 30.3714L107.898 30.3704C106.465 30.7757 105.235 30.9222 104.23 30.7717C104.088 30.765 103.916 30.7292 103.771 30.6028C103.598 30.4515 103.548 30.2478 103.548 30.0794V17.5403C103.548 16.2622 103.303 15.3852 102.886 14.8362C102.487 14.3105 101.881 14.0217 100.985 14.0217C99.83 14.0217 98.8915 14.461 98.1394 15.3626V28.0247H98.1384C98.1729 28.8142 98.0582 29.4942 97.7166 29.9954C97.3545 30.5263 96.7919 30.7826 96.116 30.8108H96.0925C93.8949 30.7872 92.6348 30.7757 92.3074 30.7757H92.283L92.2576 30.7727C92.0676 30.7516 91.8814 30.6769 91.7332 30.5286C91.5892 30.3844 91.5139 30.2036 91.4783 30.0257L91.4695 29.9817V16.0178C91.4695 14.8856 90.8176 13.8641 89.3152 12.9671L89.0964 12.8362V12.4221L89.0984 12.4036C89.1197 12.1473 89.2315 11.9221 89.4236 11.7512C89.6049 11.5901 89.8371 11.4949 90.0798 11.4378L90.0857 11.4358L92.5037 10.9133C94.6867 10.4518 96.1658 10.1732 96.9294 10.0823L96.9558 10.0794H96.9832C97.176 10.0794 97.3818 10.1287 97.5535 10.2717C97.7241 10.414 97.8099 10.6068 97.8474 10.7942L97.8562 10.8372V11.2356Z" fill="white" stroke="#6439FF" stroke-width="0.896482"/>
<path d="M77.575 9.65455C79.2487 9.65455 80.7577 9.92117 82.0935 10.4641H82.0945C83.4216 10.9802 84.5498 11.7095 85.4714 12.6545H85.4724C86.4169 13.5991 87.1226 14.7289 87.5925 16.0364H87.5935C88.0872 17.3446 88.3308 18.7808 88.3308 20.3391C88.3308 21.8972 88.087 23.3328 87.5935 24.6409L87.5925 24.6399C87.1233 25.9461 86.418 27.0738 85.4753 28.0178L85.4763 28.0188C84.5539 28.9662 83.4238 29.6972 82.0945 30.2141L82.0935 30.2131C80.7576 30.7562 79.2488 31.0237 77.575 31.0237C75.901 31.0237 74.3924 30.7563 73.0564 30.2131V30.2141C71.728 29.6975 70.5879 28.9673 69.6433 28.0227L69.6394 28.0188C68.7198 27.0744 68.0147 25.9461 67.5222 24.6409L67.5193 24.634C67.0511 23.328 66.8201 21.8948 66.8201 20.3391C66.8201 18.7833 67.051 17.3494 67.5193 16.0432L67.5222 16.0364L67.7166 15.5559C68.194 14.4526 68.8347 13.4859 69.6394 12.6594L69.6433 12.6545L70.0066 12.3108C70.7516 11.6426 71.6062 11.0956 72.5671 10.6682L73.0564 10.4641C74.3923 9.92103 75.9011 9.65459 77.575 9.65455ZM77.575 13.6321C76.4059 13.6322 75.493 14.17 74.8083 15.3254L74.8064 15.3284C74.1098 16.4821 73.738 18.1374 73.738 20.3391C73.7381 22.5381 74.1088 24.2061 74.8064 25.385L74.9373 25.5901C75.6044 26.5801 76.4752 27.0451 77.575 27.0452C78.7481 27.0452 79.6606 26.5158 80.3435 25.385C81.0412 24.206 81.4128 22.5383 81.4128 20.3391C81.4128 18.1374 81.0401 16.4821 80.3435 15.3284L80.3416 15.3254C79.6568 14.1701 78.7441 13.6321 77.575 13.6321Z" fill="white" stroke="#6439FF" stroke-width="0.896482"/>
<path d="M68.7017 11.6943L68.2798 11.7187C67.2667 11.7783 66.4119 12.3308 65.7153 13.4931L57.5122 33.8945C56.5926 36.3925 55.1085 38.0586 53.0386 38.8027L52.6167 38.9394C50.4508 39.5651 48.5462 39.7454 46.9204 39.4453L46.9067 39.4433L46.8931 39.4394C46.6327 39.3743 46.3993 39.2488 46.2183 39.0488C46.0833 38.8996 45.9914 38.7244 45.9341 38.5341L45.8872 38.3388L45.8071 37.8837L46.2651 37.8173C47.8185 37.5921 49.05 37.024 49.9868 36.1308L50.1626 35.9482C50.5871 35.4745 51.117 34.6561 51.7505 33.456C52.4499 32.1311 53.2535 30.3786 54.1665 28.1962C52.1339 23.1237 50.5397 19.2785 49.3813 16.6591C48.7953 15.3338 48.3234 14.3286 47.9653 13.6386C47.7859 13.2928 47.6389 13.0344 47.5239 12.8574C47.4663 12.7686 47.4218 12.7074 47.3892 12.6689C47.3785 12.6563 47.3705 12.6484 47.3657 12.6435L47.3218 12.6201L47.27 12.5615C46.7364 11.9639 46.1675 11.6522 45.563 11.5742L45.1724 11.5244V10.9843L45.1792 10.9462L45.2046 10.832C45.2751 10.5719 45.4267 10.3486 45.6694 10.1992C45.9235 10.0429 46.2299 9.9985 46.5415 10.0097V10.0087H55.3257C55.6116 10.0088 55.8873 10.069 56.1245 10.2207C56.3656 10.375 56.5309 10.601 56.6304 10.8662L56.6597 10.9423V11.4101L56.4077 11.5322C55.4108 12.0196 55.0844 12.5452 55.1001 13.0644L55.1011 13.0781V13.332C55.1064 13.3536 55.1156 13.388 55.1313 13.4375C55.1627 13.5359 55.2124 13.675 55.2808 13.8574C55.417 14.2212 55.6231 14.7396 55.8999 15.414C56.3989 16.6296 57.1246 18.3422 58.0757 20.5537C59.0255 18.6293 59.7765 17.049 60.3257 15.8095C60.9186 14.4712 61.2627 13.5618 61.3862 13.0537C61.3282 12.623 61.2 12.3443 61.0376 12.1709C60.8734 11.9955 60.6319 11.8803 60.2612 11.8613L59.8364 11.8388V11.0048L59.8374 10.9863C59.8568 10.7545 59.9434 10.5387 60.1079 10.3632C60.2671 10.1934 60.4736 10.0887 60.6919 10.0263L60.7524 10.0087H67.855L67.9429 10.0488L68.0776 10.1181C68.379 10.2927 68.5913 10.5589 68.686 10.9062L68.7017 10.9638V11.6943Z" fill="white" stroke="#6439FF" stroke-width="0.896482"/>
<path d="M36.3389 9.93788L36.7793 9.94472C38.9612 10.0095 40.8264 10.5595 42.3506 11.6205C43.8752 12.6819 45.0259 14.2311 45.8164 16.2377L45.9697 16.6459L45.9717 16.6527L45.9746 16.6596C46.4422 18.1115 46.5876 19.6451 46.4189 21.2553C46.4254 21.5513 46.3725 21.8552 46.1777 22.0932C45.9603 22.3587 45.6466 22.4502 45.3369 22.4506L45.3379 22.4516L33.5342 22.5209C33.5712 23.6388 33.8725 24.4965 34.4062 25.1332C34.9673 25.8023 35.8245 26.2772 37.0303 26.5228L37.4824 26.6039C39.7311 26.948 41.8501 26.4111 43.8623 24.973C43.9465 24.9028 44.0533 24.846 44.1826 24.8275C44.2971 24.8112 44.4025 24.8277 44.4932 24.8598L44.5791 24.8969L44.6152 24.9144L44.6475 24.9389C44.9696 25.1805 45.3142 25.5286 45.6797 25.9672C45.7745 26.0687 45.869 26.2046 45.9004 26.3773C45.9389 26.589 45.8709 26.7793 45.7559 26.9232L45.749 26.933L45.7412 26.9418C43.2003 29.8003 40.0614 31.1458 36.3574 30.9516V30.9525C34.0779 30.8672 32.1331 30.2588 30.5488 29.1049C28.9651 27.9514 27.7733 26.2757 26.958 24.1098L26.9463 24.0795L26.9395 24.0482C26.7218 23.0566 26.6104 22.1493 26.6104 21.3305V19.9223L26.6133 19.8959C26.9979 16.6868 27.9852 14.2068 29.624 12.518C31.2715 10.8203 33.5267 9.97449 36.333 9.93788H36.3389ZM36.1836 13.4945C35.5861 13.5335 35.0143 13.87 34.4688 14.6176L34.4658 14.6225C33.9613 15.2953 33.6497 16.4788 33.6055 18.2611H39.7588C39.7595 16.7437 39.4284 15.6068 38.8154 14.8021L38.8125 14.7982C38.134 13.8865 37.3094 13.4704 36.3125 13.4906H36.3027L36.1836 13.4945Z" fill="white" stroke="#6439FF" stroke-width="0.896482"/>
<path d="M13.9277 1.61434L14.3594 1.61922C16.4899 1.66444 18.2672 2.04855 19.666 2.80087C21.076 3.55916 22.0807 4.68051 22.6689 6.1495L22.7803 6.44735L22.7881 6.46981L22.7939 6.49325C23.0006 7.36582 23.1117 8.04195 23.0898 8.47372L23.085 8.77547C23.0411 10.273 22.667 11.5584 21.9375 12.6075C21.3453 13.459 20.534 14.1313 19.5205 14.6339C19.9052 14.7562 20.2785 14.9005 20.6396 15.0684L20.9688 15.2296L20.9873 15.2393L21.0049 15.2501C23.4125 16.789 24.6475 18.9214 24.6475 21.6143V22.4991C24.6475 24.3127 24.133 25.8558 23.0801 27.0938C22.0325 28.3254 20.4839 29.218 18.4805 29.8009L18.4697 29.8048L18.458 29.8067C17.2152 30.0992 15.8581 30.2442 14.3887 30.2442H4.54199C4.09153 30.2442 3.67216 30.127 3.37012 29.8155C3.07062 29.5066 2.95996 29.0823 2.95996 28.627V6.31258C2.95983 5.22809 2.2974 4.16673 0.75293 3.14462L0.551758 3.0118V2.56161L0.571289 2.49715C0.706398 2.05826 1.00509 1.74126 1.45801 1.62801L1.51172 1.61434H13.9277ZM9.98438 25.9405C9.99382 25.9748 10.0015 26.0006 10.0098 26.0186H12.3691C14.1708 26.0186 15.4392 25.6376 16.252 24.9542C17.0497 24.2833 17.4824 23.2579 17.4824 21.7911C17.4824 20.2123 17.0344 19.1052 16.21 18.3829C15.3739 17.6507 14.0728 17.2452 12.2275 17.2452H9.98438V25.9405ZM9.91309 13.0548H12.1221C13.3408 13.0547 14.2499 12.7349 14.9023 12.1436C15.5649 11.541 15.9238 10.66 15.9238 9.42977C15.9238 8.19845 15.5643 7.33341 14.9072 6.75594L14.9014 6.75106L14.8965 6.74618C14.2437 6.13423 13.3369 5.80485 12.1221 5.80477H9.91309V13.0548Z" fill="white" stroke="#6439FF" stroke-width="0.896482"/>
<path d="M135.457 44.8781L135.897 44.885C138.079 44.9497 139.945 45.4997 141.469 46.5608C142.993 47.6221 144.144 49.1714 144.935 51.1779L145.088 51.5862L145.09 51.593L145.093 51.5998C145.56 53.0517 145.706 54.5853 145.537 56.1955C145.544 56.4915 145.491 56.7954 145.296 57.0334C145.078 57.2989 144.765 57.3904 144.455 57.3908L144.456 57.3918L132.652 57.4612C132.689 58.579 132.991 59.4368 133.524 60.0735C134.085 60.7426 134.943 61.2175 136.148 61.4631C138.566 61.9555 140.834 61.4474 142.98 59.9133C143.065 59.8431 143.171 59.7863 143.301 59.7678C143.415 59.7515 143.521 59.768 143.611 59.8L143.697 59.8371L143.733 59.8547L143.766 59.8791C144.088 60.1207 144.432 60.4688 144.798 60.9074C144.893 61.009 144.987 61.1448 145.019 61.3176C145.057 61.5292 144.989 61.7196 144.874 61.8635L144.867 61.8733L144.859 61.882C142.318 64.7406 139.18 66.0861 135.476 65.8918V65.8928C133.196 65.8075 131.251 65.1991 129.667 64.0451C128.083 62.8916 126.891 61.2159 126.076 59.05L126.064 59.0197L126.058 58.9885C125.84 57.9969 125.729 57.0896 125.729 56.2707V54.8625L125.731 54.8362C126.116 51.627 127.103 49.1471 128.742 47.4582C130.39 45.7606 132.645 44.9147 135.451 44.8781H135.457ZM135.302 48.4348C134.704 48.4738 134.132 48.8103 133.587 49.5578L133.584 49.5627C133.079 50.2356 132.768 51.4191 132.724 53.2014H138.877C138.878 51.6839 138.547 50.547 137.934 49.7424L137.931 49.7385C137.252 48.8268 136.428 48.4106 135.431 48.4309H135.421L135.302 48.4348Z" fill="white" stroke="#6439FF" stroke-width="0.896482"/>
<path d="M110.232 35.6426C110.465 35.6891 110.7 35.7865 110.871 35.9814C111.042 36.1766 111.1 36.4148 111.089 36.6484V45.9385C112.228 45.1648 113.486 44.7715 114.855 44.7715H115.963L115.953 45.209L115.963 44.7724C117.678 44.8092 119.129 45.2013 120.286 45.9814C121.375 46.7152 122.172 47.7707 122.688 49.1211L122.788 49.3955L122.799 49.4267L122.805 49.4599C122.974 50.3778 123.061 51.2204 123.061 51.9853V61.9736C123.107 62.8849 122.896 63.6732 122.38 64.289C121.863 64.9047 121.087 65.2925 120.117 65.4941L120.072 65.5029H117.192C117.029 65.5028 116.824 65.4616 116.663 65.3008C116.502 65.1399 116.461 64.9349 116.461 64.7715V51.6142C116.393 50.5886 116.128 49.8919 115.729 49.4541C115.338 49.0265 114.763 48.7852 113.935 48.7851H113.929C113.084 48.774 112.453 48.928 111.999 49.206C111.569 49.4693 111.265 49.8659 111.089 50.4267V63.8857C111.089 64.2918 111.039 64.6594 110.908 64.9541L110.907 64.9531C110.822 65.1718 110.658 65.3279 110.451 65.415C110.259 65.496 110.042 65.5125 109.828 65.5019L109.829 65.5029L105.331 65.539H105.273L105.219 65.5254C105.001 65.4709 104.791 65.3564 104.648 65.1494C104.515 64.956 104.479 64.7341 104.49 64.5234H104.489V41.6347L104.485 41.4297C104.426 40.4079 103.781 39.4703 102.37 38.6279L102.174 38.5107L102.153 38.2832C102.132 38.0454 102.194 37.8177 102.342 37.625C102.481 37.443 102.676 37.3175 102.884 37.2285L102.92 37.2129L102.958 37.2041C106.287 36.4249 108.658 35.9034 110.062 35.6416L110.147 35.626L110.232 35.6426Z" fill="white" stroke="#6439FF" stroke-width="0.896482"/>
<path d="M96.0303 45.1263H101.312L101.34 45.1292C101.492 45.1483 101.671 45.2039 101.813 45.346C101.964 45.4964 102.016 45.6862 102.016 45.8578V45.8998L102.008 45.9408C101.85 46.7796 101.477 47.4734 100.876 47.9955L100.877 47.9964C100.876 47.9976 100.873 47.9982 100.872 47.9994C100.871 48.0004 100.87 48.0022 100.869 48.0033L100.868 48.0023C100.279 48.5317 99.5239 48.7947 98.6406 48.8207H98.6328L96.0303 48.85V59.388C96.0303 60.2664 96.2205 60.8416 96.5234 61.1937C96.8149 61.5323 97.2738 61.7359 97.9863 61.7367C99.0162 61.6901 99.8635 61.4785 100.543 61.1175C100.696 61.0338 100.888 60.9682 101.1 60.9984C101.272 61.023 101.411 61.1042 101.518 61.2103L101.613 61.3236L101.624 61.3382L101.633 61.3529C101.848 61.7115 102.008 62.0127 102.094 62.2416L102.14 62.3646L102.111 62.4945C101.918 63.377 101.248 64.0893 100.247 64.6644L100.043 64.7777C98.8951 65.3899 97.4463 65.68 95.7236 65.68C94.0931 65.68 92.7512 65.4395 91.7314 64.9232C90.6956 64.3987 90.0047 63.5952 89.6963 62.5228V62.5218C89.488 61.8849 89.4076 61.007 89.4307 59.9193V48.8207H87.6123C87.3661 48.8206 87.0987 48.7592 86.8965 48.557C86.6943 48.3547 86.6328 48.0873 86.6328 47.8412V45.9642C86.6328 45.7593 86.699 45.5523 86.8613 45.39C87.0133 45.2381 87.2086 45.1662 87.3906 45.1332L87.4307 45.1263H89.4385L89.4668 43.4066V43.3929L89.4678 43.3783C89.4992 42.98 89.4298 42.769 89.3516 42.6634C89.2864 42.5758 89.1609 42.4898 88.873 42.4808L88.4561 42.4671L88.4395 42.0501C88.4252 41.6939 88.4879 41.3553 88.667 41.0687C88.8495 40.7767 89.1254 40.5836 89.4541 40.474L94.9404 38.598L95.0117 38.5736H95.0859C95.3111 38.5736 95.5536 38.6311 95.7451 38.8089C95.9362 38.9865 96.011 39.2235 96.0283 39.4476L96.0303 39.4652V45.1263Z" fill="white" stroke="#6439FF" stroke-width="0.896482"/>
<path d="M276.448 80.6474L276.026 80.6718C275.013 80.7314 274.159 81.2838 273.462 82.4462L265.259 102.848C264.339 105.346 262.855 107.012 260.785 107.756L260.363 107.892C258.197 108.518 256.293 108.698 254.667 108.398L254.653 108.396L254.64 108.392C254.379 108.327 254.146 108.202 253.965 108.002C253.83 107.853 253.738 107.677 253.681 107.487L253.634 107.292L253.554 106.837L254.012 106.77C255.565 106.545 256.797 105.977 257.733 105.084L257.909 104.901C258.334 104.428 258.864 103.609 259.497 102.409C260.196 101.084 261 99.3316 261.913 97.1493C259.881 92.0768 258.286 88.2316 257.128 85.6122C256.542 84.2869 256.07 83.2817 255.712 82.5917C255.532 82.2458 255.386 81.9875 255.271 81.8104C255.213 81.7217 255.168 81.6605 255.136 81.622C255.125 81.6094 255.117 81.6014 255.112 81.5966L255.068 81.5731L255.017 81.5145C254.483 80.9169 253.914 80.6052 253.31 80.5272L252.919 80.4774V79.9374L252.926 79.8993C252.98 79.5908 253.139 79.323 253.416 79.1522C253.67 78.996 253.976 78.9516 254.288 78.9628V78.9618H263.072C263.358 78.9618 263.634 79.0221 263.871 79.1737C264.112 79.328 264.277 79.554 264.377 79.8192L264.406 79.8954V80.3632L264.154 80.4852C263.157 80.9726 262.831 81.4982 262.847 82.0175L262.848 82.0311V82.285C262.853 82.3067 262.862 82.3411 262.878 82.3905C262.909 82.489 262.959 82.628 263.027 82.8104C263.164 83.1743 263.37 83.6927 263.646 84.3671C264.145 85.5826 264.871 87.2947 265.822 89.5058C266.772 87.5817 267.523 86.0019 268.072 84.7626C268.665 83.4242 269.009 82.5149 269.133 82.0067C269.075 81.576 268.947 81.2974 268.784 81.1239C268.62 80.9486 268.379 80.8334 268.008 80.8143L267.583 80.7919V79.9579L267.584 79.9393C267.603 79.7076 267.69 79.4918 267.854 79.3163C268.014 79.1465 268.22 79.0418 268.438 78.9794L268.499 78.9618H275.602L275.689 79.0018L275.824 79.0712C276.126 79.2457 276.338 79.512 276.433 79.8593L276.448 79.9169V80.6474Z" fill="white" stroke="#6439FF" stroke-width="0.896482"/>
<path d="M253.4 85.8563C253.4 86.0606 253.348 86.2771 253.197 86.4559C253.046 86.6339 252.842 86.7214 252.642 86.7577L252.602 86.7655H249.24L249.212 86.7616C248.992 86.734 248.796 86.6187 248.673 86.4188C248.575 86.2586 248.544 86.0757 248.538 85.9081C248.459 85.2897 248.328 84.8369 248.163 84.5262C248.013 84.2434 247.847 84.0982 247.678 84.0301L247.346 84.0028C246.99 84.0058 246.544 84.1846 245.998 84.6483C245.456 85.1093 244.856 85.8173 244.2 86.7919C244.061 87.0549 244.014 87.2472 244.014 87.3797V93.1171C244.014 94.8164 243.665 96.2392 242.929 97.3495C242.189 98.4665 241.083 99.226 239.652 99.6405L239.651 99.6395C239.505 99.6912 239.317 99.7231 239.124 99.744C238.89 99.7693 238.591 99.7867 238.232 99.7987L238.161 99.8016L238.094 99.7821C237.935 99.7366 237.785 99.6481 237.672 99.5067C237.562 99.3683 237.508 99.208 237.489 99.0526L237.486 99.0253V85.5379C237.486 84.1536 236.85 83.0619 235.503 82.2362L235.276 82.0965L235.29 81.829L235.314 81.6249C235.35 81.4229 235.425 81.2309 235.558 81.0672C235.734 80.8502 235.974 80.7268 236.237 80.6737L238.769 80.079C241.014 79.5598 242.39 79.2688 242.876 79.2128L242.902 79.2098H242.928C243.123 79.2099 243.375 79.2741 243.528 79.5145C243.645 79.6986 243.646 79.9051 243.624 80.0663V82.5653C244.898 80.3051 246.441 79.0526 248.304 79.0692V79.0682C248.307 79.0682 248.309 79.0692 248.312 79.0692C248.313 79.0692 248.315 79.0682 248.317 79.0682L248.316 79.0692C249.843 79.0465 251.076 79.5629 251.947 80.6532C252.802 81.7236 253.266 83.2938 253.399 85.2958L253.4 85.3104V85.8563Z" fill="white" stroke="#6439FF" stroke-width="0.896482"/>
<path d="M225.619 89.8364C225.472 89.8688 225.32 89.9043 225.164 89.9448L224.809 90.0414C224.33 90.1785 223.874 90.3384 223.443 90.52L223.434 90.5239L223.425 90.5278C222.594 90.8339 222.004 91.2566 221.619 91.7787L221.488 91.9828C221.203 92.4663 221.061 92.9952 221.061 93.5776C221.061 94.2724 221.237 94.7467 221.53 95.0639C221.852 95.3644 222.308 95.5385 222.951 95.5385C223.759 95.5385 224.394 95.3165 224.89 94.9008C225.372 94.4745 225.619 93.9184 225.619 93.1879V89.8364ZM232.254 91.7358C232.254 93.6417 232.424 95.088 232.746 96.0981C233.058 97.0792 233.484 97.5625 233.949 97.7377C234.087 97.747 234.245 97.7808 234.383 97.8774C234.58 98.0158 234.662 98.2261 234.662 98.4301V98.5717C234.662 98.974 234.34 99.2317 234.091 99.3813L233.984 99.4448H230.849C229.883 99.4448 229.04 99.1918 228.352 98.6606C227.826 98.2543 227.414 97.7019 227.102 97.0229C226.587 97.7625 225.958 98.3511 225.209 98.7758C224.243 99.3229 223.107 99.5873 221.817 99.5873H221.815C219.524 99.5753 217.724 99.1125 216.49 98.1254C215.237 97.1229 214.639 95.638 214.639 93.7553V93.7524L214.654 93.3715C214.783 91.4916 215.789 89.9474 217.594 88.7504C219.431 87.5317 222.108 86.6619 225.584 86.1108V85.1176L225.571 84.77C225.521 83.9885 225.332 83.4226 225.044 83.0336C224.728 82.6083 224.254 82.3424 223.563 82.267H222.962C222.201 82.4085 221.659 82.7203 221.291 83.1791C220.913 83.6501 220.68 84.3226 220.635 85.2407C220.633 85.4714 220.593 85.7268 220.44 85.9301C220.266 86.1628 220.011 86.244 219.763 86.2328V86.2338H216.335C216.126 86.2472 215.926 86.1778 215.771 86.0229C215.624 85.876 215.547 85.6826 215.503 85.5043L215.489 85.4516V84.6879C215.489 83.2751 215.936 82.0627 216.839 81.0815C217.733 80.1098 219.048 79.3948 220.737 78.9086L220.739 78.9077L221.108 78.812C221.983 78.6034 222.952 78.5014 224.013 78.5014C225.992 78.5014 227.654 78.8772 228.971 79.6625C230.294 80.451 231.235 81.6331 231.799 83.1811L231.89 83.4399C232.092 84.0593 232.211 84.789 232.254 85.6205V91.7358Z" fill="white" stroke="#6439FF" stroke-width="0.896482"/>
<path d="M199.893 80.1888C201.203 79.2285 202.747 78.7494 204.51 78.7493H204.522L204.535 78.7503L204.932 78.7776C206.892 78.9369 208.493 79.4405 209.698 80.3235C210.913 81.2141 211.69 82.4641 212.041 84.0403L212.105 84.3597L212.109 84.3772L212.11 84.3948C212.205 85.3433 212.255 86.0924 212.255 86.6341L212.29 95.595C212.337 96.5493 212.186 97.3706 211.79 98.0179C211.383 98.6809 210.75 99.1112 209.936 99.3245L209.935 99.3235C208.502 99.7288 207.272 99.8753 206.267 99.7249C206.125 99.7182 205.953 99.6824 205.808 99.556C205.635 99.4046 205.585 99.2009 205.585 99.0325V86.4935C205.585 85.2153 205.34 84.3383 204.924 83.7894C204.525 83.2636 203.918 82.9749 203.022 82.9749C201.867 82.9749 200.929 83.4142 200.177 84.3157V96.9778H200.176C200.21 97.7674 200.095 98.4474 199.754 98.9485C199.392 99.4795 198.829 99.7358 198.153 99.764H198.13C195.932 99.7403 194.672 99.7288 194.344 99.7288H194.32L194.295 99.7259C194.105 99.7047 193.919 99.63 193.77 99.4817C193.626 99.3376 193.551 99.1568 193.515 98.9788L193.507 98.9349V84.971C193.507 83.8387 192.855 82.8172 191.352 81.9202L191.134 81.7894V81.3753L191.135 81.3567C191.157 81.1005 191.269 80.8753 191.461 80.7044C191.642 80.5432 191.874 80.448 192.117 80.3909L192.123 80.389L194.541 79.8665C196.724 79.405 198.203 79.1264 198.967 79.0354L198.993 79.0325H199.02C199.213 79.0326 199.419 79.0819 199.591 79.2249C199.761 79.3672 199.847 79.5599 199.885 79.7474L199.893 79.7903V80.1888Z" fill="white" stroke="#6439FF" stroke-width="0.896482"/>
<path d="M187.574 78.7068C187.71 78.7577 187.853 78.836 187.965 78.9617C188.084 79.0964 188.148 79.2642 188.148 79.4451V95.7595L188.15 95.989C188.131 97.1206 187.687 98.0273 186.794 98.6404C185.875 99.2708 184.535 99.5515 182.847 99.5515H182.835C182.42 99.5393 182.063 99.4965 181.796 99.4021C181.546 99.3141 181.195 99.1069 181.195 98.6785V85.9275C181.195 84.8861 180.994 84.0429 180.616 83.3767C180.288 82.7975 179.814 82.3308 179.182 81.9783L178.902 81.8347L178.674 81.7263L178.647 81.4763C178.614 81.1575 178.682 80.8373 178.92 80.5886C179.134 80.3636 179.433 80.257 179.742 80.2117L182.656 79.5857C185.236 79.0403 186.816 78.7361 187.372 78.6804L187.476 78.6706L187.574 78.7068ZM184.453 69.4695C185.5 69.4963 186.392 69.9182 187.108 70.7117H187.109C187.748 71.4042 188.086 72.228 188.113 73.1638V73.1892C188.086 74.1046 187.746 74.9154 187.109 75.6052L187.107 75.6072C186.386 76.3812 185.489 76.7771 184.441 76.7771C183.354 76.777 182.423 76.3867 181.676 75.613L181.662 75.5984L181.649 75.5827C181.088 74.8877 180.805 74.0798 180.805 73.1765C180.805 72.1142 181.183 71.2049 181.934 70.4802L181.941 70.4734L182.074 70.3572C182.742 69.7916 183.533 69.4944 184.429 69.4695H184.453Z" fill="white" stroke="#6439FF" stroke-width="0.896482"/>
<path d="M164.267 82.621C163.778 82.621 163.37 82.7494 163.023 82.9951C162.672 83.2436 162.358 83.6307 162.096 84.1875C161.566 85.3132 161.28 87.0578 161.28 89.4687C161.28 91.67 161.611 93.2471 162.216 94.2597C162.8 95.2357 163.652 95.7148 164.833 95.7148H167.396V83.8095C166.787 83.0268 165.907 82.621 164.692 82.621H164.267ZM174.101 98.1113C174.101 98.5501 173.987 98.9607 173.681 99.2568C173.378 99.5501 172.963 99.6571 172.52 99.6572H162.46C160.711 99.6572 159.187 99.1328 157.914 98.0751C156.649 97.0236 155.658 95.4683 154.92 93.4482L154.908 93.4169L154.902 93.3837C154.639 92.0942 154.503 91.0109 154.503 90.1425V88.3359C154.503 86.1182 154.936 84.2233 155.829 82.6748C156.725 81.1219 158.067 79.9457 159.831 79.1435L159.851 79.1347L159.871 79.1279C160.955 78.7584 162.055 78.5723 163.168 78.5722C164.817 78.5722 166.235 78.9513 167.396 79.7285V76.1162C167.396 74.6107 166.711 73.4116 165.266 72.4921L165.058 72.3593V72.0078C165.058 71.7052 165.139 71.4064 165.359 71.1757C165.565 70.9593 165.841 70.8594 166.128 70.8242L172.823 69.5136L172.865 69.5048H173.272L173.316 69.5136C173.494 69.5493 173.669 69.6232 173.814 69.7558C173.961 69.8908 174.049 70.0616 174.09 70.2451L174.101 70.2939V98.1113Z" fill="white" stroke="#6439FF" stroke-width="0.896482"/>
<path d="M153.535 85.8563C153.535 86.0606 153.484 86.2771 153.332 86.4559C153.182 86.6339 152.977 86.7214 152.778 86.7577L152.738 86.7655H149.375L149.348 86.7616C149.127 86.734 148.932 86.6187 148.809 86.4188C148.71 86.2586 148.679 86.0757 148.674 85.9081C148.595 85.2897 148.464 84.8369 148.299 84.5262C148.149 84.2434 147.982 84.0982 147.814 84.0301L147.482 84.0028C147.125 84.0058 146.68 84.1846 146.134 84.6483C145.592 85.1093 144.992 85.8173 144.336 86.7919C144.197 87.0549 144.15 87.2472 144.15 87.3797V93.1171C144.15 94.8164 143.801 96.2392 143.065 97.3495C142.324 98.4665 141.219 99.226 139.787 99.6405L139.786 99.6395C139.641 99.6912 139.453 99.7231 139.26 99.744C139.026 99.7693 138.727 99.7867 138.367 99.7987L138.297 99.8016L138.23 99.7821C138.07 99.7366 137.921 99.6481 137.808 99.5067C137.725 99.403 137.674 99.2869 137.646 99.1698L137.624 99.0526L137.621 99.0253V85.5379C137.621 84.1536 136.986 83.0619 135.639 82.2362L135.411 82.0965L135.426 81.829L135.449 81.6249C135.485 81.4229 135.561 81.2309 135.694 81.0672C135.869 80.8502 136.109 80.7268 136.372 80.6737L138.906 80.079C141.15 79.56 142.526 79.2688 143.012 79.2128L143.037 79.2098H143.064C143.259 79.2099 143.51 79.2741 143.663 79.5145C143.781 79.6986 143.782 79.9051 143.76 80.0663V82.5653C145.033 80.3051 146.576 79.0526 148.44 79.0692V79.0682C148.442 79.0682 148.445 79.0692 148.448 79.0692C148.449 79.0692 148.451 79.0682 148.452 79.0682L148.451 79.0692C149.979 79.0465 151.211 79.5629 152.082 80.6532C152.937 81.7236 153.402 83.2938 153.534 85.2958L153.535 85.3104V85.8563Z" fill="white" stroke="#6439FF" stroke-width="0.896482"/>
<path d="M120.365 70.1779C122.35 70.1779 124.188 70.5165 125.874 71.1994H125.875C127.586 71.8595 129.059 72.8286 130.287 74.1056L130.513 74.3478C131.631 75.5767 132.507 77.0485 133.145 78.756C133.852 80.5856 134.202 82.6362 134.202 84.9005C134.202 87.164 133.851 89.2131 133.145 91.0421L133.146 91.0431C132.508 92.7511 131.632 94.2231 130.513 95.4523L130.287 95.6945C129.059 96.9714 127.586 97.9406 125.875 98.6007L125.874 98.5997C124.188 99.2827 122.35 99.6222 120.365 99.6222C118.376 99.6222 116.524 99.2829 114.814 98.5988V98.5978C113.233 97.9786 111.852 97.09 110.675 95.9308L110.443 95.6945C109.217 94.4191 108.253 92.8679 107.549 91.048L107.548 91.0431C106.866 89.2142 106.528 87.1644 106.528 84.9005C106.528 82.6365 106.866 80.586 107.548 78.757L107.549 78.7521L107.685 78.4142C108.375 76.7396 109.293 75.3012 110.443 74.1056L110.675 73.8693C111.852 72.71 113.233 71.8205 114.814 71.2013L115.136 71.0773C116.756 70.4762 118.501 70.1779 120.365 70.1779ZM120.365 74.4747C119.426 74.4747 118.572 74.7028 117.792 75.1574C117.132 75.5546 116.545 76.1131 116.036 76.8439L115.822 77.1681C115.262 78.0638 114.817 79.1632 114.496 80.4738L114.495 80.4747C114.175 81.754 114.012 83.2284 114.012 84.9005C114.012 86.5722 114.175 88.0584 114.496 89.3624C114.817 90.6481 115.261 91.7355 115.822 92.632L116.036 92.9562C116.545 93.687 117.132 94.2455 117.792 94.6427L118.088 94.8029C118.787 95.151 119.544 95.3253 120.365 95.3253C121.303 95.3253 122.144 95.0974 122.897 94.6456L122.902 94.6427L123.189 94.4621C123.847 94.018 124.421 93.4115 124.908 92.632L125.113 92.2863C125.578 91.4597 125.952 90.486 126.234 89.3605C126.554 88.0569 126.717 86.5715 126.717 84.9005C126.717 83.2284 126.554 81.754 126.234 80.4747V80.4738C125.952 79.327 125.576 78.3421 125.112 77.5138L124.908 77.1681C124.351 76.2772 123.681 75.612 122.902 75.1574L122.897 75.1544C122.144 74.7027 121.303 74.4748 120.365 74.4747Z" fill="white" stroke="#6439FF" stroke-width="0.896482"/>
</svg>
