<svg width="96" height="96" viewBox="0 0 96 96" fill="none" xmlns="http://www.w3.org/2000/svg">
<circle cx="48" cy="48" r="48" fill="#BBFBFC"/>
<path d="M55.7499 61.6125L55.3973 61.7083C54.922 61.8441 54.471 62.0015 54.0448 62.1809L54.0321 62.1868L54.0194 62.1917C53.2105 62.4897 52.6495 62.8961 52.287 63.386L52.162 63.5803C51.8909 64.0399 51.7567 64.5417 51.7567 65.0969C51.7567 65.7646 51.9246 66.1942 52.1805 66.4729C52.4653 66.7353 52.8764 66.8977 53.4862 66.8977C54.262 66.8977 54.8578 66.687 55.3202 66.302C55.7663 65.9083 55.9978 65.397 55.9979 64.7063V61.551C55.9166 61.5704 55.8339 61.5908 55.7499 61.6125ZM62.9901 63.2483C62.9901 65.1545 63.161 66.5865 63.4764 67.5764C63.7794 68.5269 64.177 68.9522 64.5692 69.1077C64.7199 69.1214 64.8967 69.1638 65.0565 69.2756C65.3064 69.4507 65.408 69.7172 65.4081 69.967V70.1096C65.4081 70.6103 65.0079 70.9117 64.7528 71.0647L64.6063 71.1526H61.4139C60.4137 71.1526 59.531 70.8907 58.8065 70.3313C58.3205 69.956 57.9312 69.4636 57.6249 68.8743C57.126 69.5307 56.5317 70.0638 55.8339 70.4592C54.835 71.0252 53.6655 71.2951 52.3485 71.2952H52.3456C50.0286 71.283 48.1776 70.8154 46.8973 69.7913C45.5904 68.7457 44.9774 67.2018 44.9774 65.2747V65.2708L44.9921 64.8772C45.1264 62.9309 46.1705 61.3373 48.0165 60.1125C49.8639 58.8869 52.5305 58.0152 55.9628 57.4592V56.6077L55.9501 56.2659C55.9009 55.5024 55.7172 54.9688 55.453 54.6125C55.1689 54.2296 54.7391 53.982 54.0829 53.9104H53.5135C52.7883 54.0478 52.2867 54.3431 51.9491 54.7639C51.5985 55.201 51.3723 55.8382 51.329 56.7366C51.3258 56.9817 51.2822 57.2781 51.0995 57.5217C50.8861 57.806 50.5755 57.9021 50.286 57.8909V57.8928H46.8407C46.5909 57.9048 46.349 57.819 46.162 57.6321C46.0286 57.4986 45.9456 57.3373 45.8925 57.1838L45.8485 57.0344L45.83 56.9602V56.1741C45.83 54.7177 46.291 53.459 47.2284 52.4407C48.1537 51.4355 49.5043 50.7062 51.2177 50.2131L51.2216 50.2122L51.5975 50.1135C52.4905 49.9006 53.4771 49.7981 54.5526 49.7981C56.5581 49.7981 58.2587 50.1786 59.6141 50.9866C60.9799 51.8008 61.9501 53.0222 62.5272 54.6125H62.5262C62.7913 55.3063 62.9409 56.1416 62.9901 57.1018V63.2483Z" fill="#FFD847" stroke="#5121FF" stroke-width="1.23334"/>
<path d="M30.5088 51.3381C31.7957 50.4763 33.2912 50.0471 34.9766 50.0471H34.9932L35.0107 50.0481C37.1799 50.1706 38.957 50.6885 40.2822 51.6594C41.5384 52.5799 42.3388 53.8708 42.6982 55.4875L42.7646 55.8147L42.7686 55.8391L42.7715 55.8635C42.8668 56.8166 42.9158 57.5743 42.916 58.1262L42.9521 67.1213C42.9989 68.0963 42.8461 68.9549 42.4258 69.6409C41.992 70.3486 41.3165 70.8034 40.4658 71.0266L40.4648 71.0247C39.0182 71.4335 37.761 71.5874 36.7207 71.4329C36.5569 71.4234 36.3485 71.3791 36.1699 71.2229C35.9496 71.0302 35.8888 70.7734 35.8887 70.5725V57.9866C35.8886 56.72 35.6444 55.8827 35.2578 55.3733C34.8956 54.8962 34.3426 54.6214 33.4834 54.6213C32.3949 54.6213 31.5111 55.0243 30.7939 55.8606V68.51C30.8282 69.3156 30.7106 70.0372 30.3398 70.5813C29.9406 71.1668 29.3216 71.4429 28.6025 71.4729H28.5703C26.3649 71.4492 25.1017 71.4378 24.7734 71.4377H24.7393L24.7051 71.4338C24.4832 71.4092 24.259 71.3217 24.0791 71.1418C23.9483 71.011 23.8661 70.857 23.8164 70.7034L23.7773 70.551L23.7656 70.4905V56.4583C23.7656 55.4012 23.1622 54.4221 21.6836 53.5393L21.3838 53.3596V52.842L21.3857 52.8167L21.3994 52.7053C21.4446 52.451 21.5709 52.226 21.7676 52.051C21.9775 51.8644 22.2398 51.7595 22.499 51.6985L22.5078 51.6965L24.9346 51.1721C27.1275 50.7085 28.6187 50.4274 29.3926 50.3352L29.4287 50.3313H29.4658C29.6872 50.3313 29.9347 50.388 30.1445 50.5627C30.353 50.7364 30.4542 50.968 30.4971 51.1819L30.5088 51.2424V51.3381Z" fill="#FFD847" stroke="#5121FF" stroke-width="1.23334"/>
<path d="M65.9586 36.1982L65.6061 36.2939C65.1308 36.4298 64.6797 36.5871 64.2535 36.7666L64.2408 36.7725L64.2281 36.7773C63.4193 37.0754 62.8582 37.4818 62.4957 37.9717L62.3707 38.166C62.0997 38.6256 61.9655 39.1273 61.9655 39.6826C61.9655 40.3503 62.1334 40.7799 62.3893 41.0586C62.674 41.321 63.0852 41.4834 63.6949 41.4834C64.4708 41.4834 65.0665 41.2727 65.5289 40.8877C65.975 40.494 66.2066 39.9827 66.2067 39.292V36.1367C66.1253 36.1561 66.0426 36.1765 65.9586 36.1982ZM73.1989 37.834C73.1989 39.7402 73.3697 41.1722 73.6852 42.1621C73.9881 43.1126 74.3857 43.5379 74.778 43.6934C74.9287 43.7071 75.1054 43.7494 75.2653 43.8613C75.5151 44.0364 75.6167 44.3029 75.6168 44.5527V44.6953C75.6168 45.196 75.2166 45.4974 74.9615 45.6504L74.8151 45.7383H71.6227C70.6225 45.7383 69.7398 45.4764 69.0153 44.917C68.5293 44.5417 68.14 44.0493 67.8336 43.46C67.3347 44.1164 66.7405 44.6495 66.0426 45.0449C65.0438 45.6109 63.8742 45.8808 62.5573 45.8809H62.5543C60.2374 45.8687 58.3864 45.4011 57.1061 44.377C55.7992 43.3314 55.1862 41.7874 55.1862 39.8604V39.8564L55.2008 39.4629C55.3351 37.5166 56.3793 35.923 58.2252 34.6982C60.0727 33.4726 62.7393 32.6009 66.1715 32.0449V31.1934L66.1588 30.8516C66.1097 30.088 65.926 29.5545 65.6617 29.1982C65.3777 28.8153 64.9478 28.5677 64.2916 28.4961H63.7223C62.9971 28.6335 62.4954 28.9288 62.1578 29.3496C61.8073 29.7867 61.581 30.4239 61.5377 31.3223C61.5346 31.5674 61.4909 31.8638 61.3082 32.1074C61.0948 32.3917 60.7843 32.4878 60.4948 32.4766V32.4785H57.0494C56.7996 32.4905 56.5577 32.4047 56.3707 32.2178C56.2373 32.0843 56.1544 31.923 56.1012 31.7695L56.0573 31.6201L56.0387 31.5459V30.7598C56.0387 29.3034 56.4998 28.0447 57.4371 27.0264C58.3624 26.0212 59.7131 25.2919 61.4264 24.7988L61.4303 24.7979L61.8063 24.6992C62.6992 24.4863 63.6858 24.3838 64.7614 24.3838C66.7668 24.3838 68.4674 24.7643 69.8229 25.5723C71.1887 26.3865 72.1588 27.6079 72.736 29.1982H72.735C73 29.892 73.1496 30.7273 73.1989 31.6875V37.834Z" fill="#FFD847" stroke="#5121FF" stroke-width="1.23334"/>
<path d="M35.2686 24.8103L35.7051 24.825C37.5523 24.937 39.0177 25.6404 40.0322 26.9568C41.4772 25.5451 43.3533 24.8606 45.6074 24.8816V24.8806H45.8926L46.2002 24.8845C47.7255 24.923 49.0516 25.2514 50.1514 25.9001C51.2573 26.5525 52.0969 27.5075 52.6748 28.738L52.7871 28.988L52.8047 29.0291L52.8164 29.072C53.011 29.8018 53.1083 30.4531 53.085 31.0095L53.0859 31.0105L53.0508 42.4929V42.5134L53.0488 42.5339C52.9784 43.5474 52.5591 44.3855 51.7803 44.988C51.0249 45.5724 49.9826 45.8958 48.7256 46.0203L48.709 46.0222H48.6914C48.1063 46.0466 47.5428 46.0468 47.002 46.0222L46.9404 46.0203L46.8799 46.0046C46.6565 45.9487 46.4336 45.816 46.293 45.575C46.1757 45.3739 46.1536 45.1594 46.1641 44.9783L46.2002 31.9666V31.9607L46.1943 31.6052C46.1577 30.8124 45.964 30.2725 45.6797 29.9207C45.3732 29.5416 44.8879 29.292 44.1211 29.2449C43.197 29.3286 42.429 29.831 41.8154 30.8875L41.7803 43.5808C41.8161 44.1984 41.7235 44.7801 41.3975 45.2332C41.0506 45.715 40.522 45.9406 39.9316 45.9861L39.9072 45.988H35.9707L35.9326 45.9832C35.6611 45.9492 35.4076 45.8008 35.2617 45.53C35.1484 45.3197 35.1331 45.0923 35.1436 44.907L35.1787 32.073V32.0681L35.1729 31.6921C35.1374 30.8531 34.9491 30.2856 34.6738 29.9236C34.3823 29.5402 33.9279 29.3023 33.2012 29.2791C32.1299 29.322 31.3362 29.7099 30.7588 30.4324L30.7236 43.3523C30.7729 44.061 30.6772 44.7211 30.3086 45.2156C29.9146 45.744 29.311 45.9519 28.6494 45.9519H24.6426L24.582 45.9402C24.3437 45.8924 24.1215 45.7755 23.9512 45.5769C23.7871 45.3855 23.7054 45.1577 23.6689 44.9392L23.6602 44.8875V44.8347L23.7314 30.9011L23.7246 30.7253C23.6569 29.8459 23.0712 29.0087 21.7002 28.24L21.4053 28.075L21.3857 27.738C21.3647 27.3801 21.4758 27.0328 21.7539 26.7673C22.0012 26.5313 22.3265 26.4129 22.6504 26.3533L24.5713 25.9343C26.4024 25.5422 27.9628 25.2304 29.251 24.9978L29.3057 24.988H29.3604C29.6272 24.988 29.9633 25.0686 30.1865 25.3728C30.3724 25.6262 30.3906 25.9208 30.3682 26.1541V26.1804C31.6149 25.2584 33.1768 24.8103 35.0137 24.8103H35.2686Z" fill="#FFD847" stroke="#5121FF" stroke-width="1.23334"/>
</svg>
