<svg width="16" height="16" viewBox="0 0 16 16" fill="none" xmlns="http://www.w3.org/2000/svg">
<circle cx="8" cy="8" r="8" fill="#BBFBFC"/>
<path d="M9.63086 11.0183C9.55293 11.0406 9.47906 11.067 9.40918 11.0964L9.40527 11.0974C9.27274 11.1462 9.17955 11.2125 9.12012 11.2927L9.12109 11.2937C9.06301 11.3776 9.03418 11.4699 9.03418 11.574C9.03418 11.6831 9.0618 11.7529 9.10352 11.7986C9.15021 11.8418 9.21712 11.8689 9.31738 11.8689C9.41341 11.8689 9.4929 11.85 9.55859 11.8132L9.61914 11.7703C9.69149 11.7058 9.72949 11.6222 9.72949 11.5095V10.9949L9.63086 11.0183ZM10.876 11.2712C10.876 11.5834 10.9034 11.818 10.9551 11.9802C11.0058 12.1394 11.073 12.2091 11.1387 12.2332C11.1624 12.2358 11.1892 12.2423 11.2139 12.2595C11.2549 12.2882 11.2725 12.3318 11.2725 12.3728V12.3962C11.2723 12.4779 11.2068 12.5274 11.165 12.5525L11.1406 12.5671H10.6172C10.4532 12.5671 10.3082 12.5241 10.1895 12.4324C10.1093 12.3705 10.0464 12.2885 9.99609 12.1912C9.91409 12.2994 9.81707 12.3878 9.70215 12.4529C9.53839 12.5457 9.34677 12.5906 9.13086 12.5906H9.12988C8.75024 12.5885 8.44712 12.5113 8.2373 12.3435C8.02307 12.1721 7.9219 11.9192 7.92188 11.6033V11.6023L7.93066 11.4753C7.9696 11.1845 8.13825 10.9441 8.4209 10.7566C8.7238 10.5557 9.16099 10.4131 9.72363 10.322V10.1824L9.7168 10.075C9.70467 9.97662 9.67681 9.90533 9.63965 9.85522C9.59332 9.79278 9.52361 9.75198 9.41699 9.73999H9.32129C9.2028 9.76255 9.12068 9.81083 9.06543 9.87964C9.008 9.95124 8.97102 10.0558 8.96387 10.2029L8.96289 10.2019C8.96252 10.2424 8.95608 10.2914 8.92578 10.3318C8.89083 10.3783 8.84038 10.3932 8.79297 10.3914V10.3923H8.22754V10.3904C8.18666 10.3923 8.14681 10.3809 8.11621 10.3503C8.08709 10.3212 8.07332 10.2833 8.06543 10.2517L8.0625 10.24V10.1111C8.0625 9.87237 8.1374 9.66571 8.29102 9.49878C8.4427 9.334 8.66447 9.21439 8.94531 9.13354H8.94629L9.07129 9.10327C9.20053 9.07772 9.34103 9.06519 9.49219 9.06519C9.82101 9.06519 10.1 9.12801 10.3223 9.2605C10.5457 9.39368 10.7041 9.59343 10.7988 9.85327L10.8281 9.94312C10.8539 10.0374 10.8699 10.1447 10.876 10.2634V11.2712Z" fill="#FFD847" stroke="#5121FF" stroke-width="0.202208"/>
<path d="M5.55078 9.31775C5.76166 9.17666 6.00708 9.10583 6.2832 9.10583H6.28809L6.2832 9.2074L6.28809 9.10681C6.64356 9.12689 6.9351 9.21143 7.15234 9.37048C7.3445 9.51127 7.4721 9.70509 7.53613 9.94568L7.55957 10.0521L7.56152 10.0599H7.56055C7.57618 10.2162 7.58494 10.3405 7.58496 10.431L7.59082 11.9056H7.58984C7.59752 12.0656 7.57285 12.2062 7.50391 12.3187C7.43277 12.4348 7.32212 12.5097 7.18262 12.5463L7.18164 12.5453C6.9429 12.6127 6.73561 12.639 6.56445 12.6127V12.6107C6.5384 12.6086 6.50616 12.6026 6.47852 12.5785C6.44237 12.5469 6.43262 12.504 6.43262 12.4711V10.4086C6.43262 10.201 6.39239 10.0634 6.3291 9.97986C6.26973 9.90163 6.17893 9.85684 6.03809 9.85681C5.8587 9.85681 5.71458 9.9243 5.59668 10.0629V12.226C5.59113 12.3206 5.56868 12.4052 5.52246 12.473C5.457 12.569 5.35519 12.6146 5.2373 12.6195H5.23242C4.87169 12.6156 4.66473 12.6137 4.61035 12.6136H4.59863V12.6127C4.56229 12.6086 4.52557 12.5943 4.49609 12.5648C4.46756 12.5363 4.45289 12.5011 4.44629 12.4681L4.44434 12.4584V10.1576C4.44434 9.98432 4.34584 9.82379 4.10352 9.67908L4.05371 9.64978V9.55994L4.15527 9.56873L4.05469 9.55994C4.05888 9.51095 4.08044 9.46762 4.11719 9.43494C4.1516 9.40434 4.1948 9.38732 4.2373 9.37732L4.23828 9.37634L4.95703 9.22498C5.14556 9.18767 5.28252 9.16378 5.36719 9.15369L5.37891 9.15173V9.15271C5.41511 9.15271 5.45588 9.16231 5.49023 9.1908C5.52441 9.21928 5.54181 9.25728 5.54883 9.29236L5.55078 9.30212V9.31775Z" fill="#FFD847" stroke="#5121FF" stroke-width="0.202208"/>
<path d="M11.3047 6.85156C11.2268 6.87383 11.1529 6.90026 11.083 6.92969L11.0791 6.93066C10.9466 6.97949 10.8534 7.04573 10.7939 7.12598L10.7949 7.12695C10.7368 7.21085 10.708 7.30319 10.708 7.40723C10.708 7.51632 10.7356 7.58612 10.7773 7.63184C10.824 7.67508 10.8909 7.70214 10.9912 7.70215C11.0872 7.70215 11.1667 7.68326 11.2324 7.64648L11.293 7.60352C11.3653 7.5391 11.4033 7.45542 11.4033 7.34277V6.82812L11.3047 6.85156ZM12.5498 7.10449C12.5498 7.41666 12.5773 7.65125 12.6289 7.81348C12.6796 7.97269 12.7468 8.04232 12.8125 8.06641C12.8362 8.06905 12.863 8.07554 12.8877 8.09277C12.9287 8.12149 12.9463 8.16506 12.9463 8.20605V8.22949C12.9461 8.31117 12.8806 8.36064 12.8389 8.38574L12.8145 8.40039H12.291C12.127 8.40039 11.9821 8.35736 11.8633 8.26562C11.7832 8.20375 11.7203 8.12176 11.6699 8.02441C11.5879 8.13269 11.4909 8.22101 11.376 8.28613C11.2122 8.37891 11.0206 8.42383 10.8047 8.42383H10.8037C10.4241 8.42177 10.121 8.3446 9.91113 8.17676C9.69689 8.00537 9.59573 7.75241 9.5957 7.43652V7.43555L9.60449 7.30859C9.64343 7.01775 9.81208 6.77736 10.0947 6.58984C10.3976 6.38896 10.8348 6.2464 11.3975 6.15527V6.01562L11.3906 5.9082C11.3785 5.80987 11.3506 5.73858 11.3135 5.68848C11.2671 5.62603 11.1974 5.58523 11.0908 5.57324H10.9951C10.8766 5.5958 10.7945 5.64408 10.7393 5.71289C10.6818 5.78449 10.6448 5.88905 10.6377 6.03613L10.6367 6.03516C10.6363 6.07561 10.6299 6.12464 10.5996 6.16504C10.5647 6.21158 10.5142 6.22641 10.4668 6.22461V6.22559H9.90137V6.22363C9.86048 6.22553 9.82064 6.2142 9.79004 6.18359C9.76091 6.15444 9.74715 6.11651 9.73926 6.08496L9.73633 6.07324V5.94434C9.73633 5.70562 9.81123 5.49896 9.96484 5.33203C10.1165 5.16726 10.3383 5.04764 10.6191 4.9668H10.6201L10.7451 4.93652C10.8744 4.91097 11.0149 4.89844 11.166 4.89844C11.4948 4.89844 11.7739 4.96126 11.9961 5.09375C12.2195 5.22693 12.378 5.42668 12.4727 5.68652L12.502 5.77637C12.5278 5.87065 12.5437 5.97794 12.5498 6.09668V7.10449Z" fill="#FFD847" stroke="#5121FF" stroke-width="0.202208"/>
<path d="M6.33105 4.96826L6.47168 4.97705C6.74224 5.0079 6.95788 5.12241 7.11133 5.32178C7.34825 5.08993 7.65561 4.97759 8.02539 4.98096V4.97998H8.07227C8.34346 4.97998 8.57824 5.03368 8.77051 5.14697C8.9156 5.23256 9.03251 5.3507 9.12207 5.49756L9.20312 5.65381L9.20605 5.66064L9.20801 5.66748C9.23986 5.78696 9.25573 5.89371 9.25195 5.98486L9.24609 7.86768V7.87451C9.23456 8.04057 9.16563 8.17809 9.03809 8.27686C8.91426 8.37264 8.74316 8.42539 8.53711 8.4458L8.53125 8.44678C8.43534 8.45077 8.34256 8.45081 8.25391 8.44678L8.24414 8.4458L8.23438 8.44385C8.19776 8.43469 8.16076 8.41305 8.1377 8.37354C8.11631 8.33687 8.11403 8.29669 8.11719 8.26514L8.12305 6.14209V6.14111L8.11816 6.02979C8.10692 5.92821 8.07711 5.85563 8.03711 5.80615C7.98634 5.74366 7.90588 5.70291 7.77832 5.6958C7.62791 5.71059 7.50328 5.7942 7.40332 5.96729L7.39844 8.04834C7.40397 8.14865 7.38881 8.24319 7.33594 8.31689C7.27905 8.3959 7.19155 8.43347 7.09473 8.44092H6.43945V8.43994C6.39496 8.43436 6.353 8.4101 6.3291 8.36572C6.30898 8.32818 6.30791 8.28698 6.31055 8.25537L6.31641 6.15967V6.15869L6.31152 6.04053C6.30056 5.93354 6.27201 5.85796 6.2334 5.80713C6.18567 5.74436 6.11107 5.70556 5.99219 5.70166C5.81545 5.70864 5.68569 5.77337 5.59082 5.89307L5.58594 8.01318H5.58496C5.59235 8.12762 5.57713 8.23392 5.51758 8.31396C5.45299 8.40061 5.3536 8.43506 5.24512 8.43506H4.58887L4.5791 8.43311C4.54009 8.4253 4.5035 8.40599 4.47559 8.37354C4.4487 8.34217 4.43469 8.30486 4.42871 8.26904L4.42773 8.26025V8.25146L4.43945 5.96729L4.43457 5.90967C4.41341 5.77606 4.31608 5.64832 4.10645 5.53076L4.05762 5.50439L4.05469 5.44873C4.05125 5.39007 4.06966 5.33305 4.11523 5.28955C4.15568 5.25105 4.20879 5.23194 4.26172 5.22217L4.8623 5.09326C5.04255 5.05624 5.20303 5.02492 5.34375 4.99951L5.35254 4.99756H5.3623C5.40596 4.99761 5.46054 5.01139 5.49707 5.06104C5.52675 5.10151 5.52958 5.14829 5.52637 5.18604H5.52734V5.19287C5.7317 5.04187 5.98806 4.96826 6.28906 4.96826H6.33105Z" fill="#FFD847" stroke="#5121FF" stroke-width="0.202208"/>
</svg>
