<svg width="180" height="180" viewBox="0 0 180 180" fill="none" xmlns="http://www.w3.org/2000/svg">
<circle cx="90" cy="90" r="90" fill="#BBFBFC"/>
<path d="M101.127 120.718L100.561 120.873C99.7994 121.09 99.0768 121.343 98.3934 121.63L98.3729 121.639L98.3514 121.647C97.0515 122.126 96.1515 122.78 95.5702 123.568C95.004 124.387 94.7225 125.291 94.7225 126.307C94.7226 127.378 94.9925 128.067 95.4032 128.514C95.8598 128.935 96.5186 129.195 97.496 129.195C98.7479 129.195 99.7084 128.854 100.452 128.229C101.159 127.599 101.524 126.781 101.524 125.68V120.62C101.394 120.651 101.261 120.683 101.127 120.718ZM112.739 123.342C112.739 126.399 113.014 128.695 113.519 130.283C114.002 131.798 114.633 132.486 115.259 132.739C115.503 132.76 115.791 132.826 116.052 133.008C116.453 133.289 116.616 133.717 116.616 134.118V134.346C116.616 135.149 115.975 135.633 115.566 135.878L115.331 136.019H110.211C108.607 136.019 107.19 135.599 106.028 134.702C105.251 134.101 104.625 133.316 104.135 132.374C103.335 133.424 102.38 134.275 101.263 134.908C99.6606 135.816 97.784 136.248 95.6718 136.248H95.6669C91.9509 136.228 88.9829 135.478 86.9296 133.835C84.8337 132.159 83.8495 129.683 83.8495 126.592V126.585L83.8563 126.268C83.9783 123.004 85.6662 120.343 88.7255 118.313C91.6882 116.348 95.9638 114.95 101.468 114.058V112.692L101.447 112.144C101.368 110.919 101.074 110.063 100.65 109.492C100.196 108.88 99.5098 108.483 98.4628 108.367H97.5321C96.3735 108.588 95.5722 109.062 95.0321 109.736C94.4699 110.437 94.1064 111.458 94.037 112.899C94.0319 113.292 93.9618 113.767 93.6688 114.158C93.3268 114.613 92.8292 114.769 92.3651 114.751V114.752H86.8466C86.443 114.774 86.0518 114.636 85.7499 114.334C85.5359 114.12 85.4035 113.862 85.3182 113.616L85.2479 113.376L85.2177 113.258V111.996C85.2177 109.66 85.9575 107.642 87.4608 106.009C88.9449 104.397 91.1112 103.227 93.8593 102.436L93.8641 102.435L94.4686 102.278C95.9005 101.936 97.4823 101.77 99.2069 101.77C102.423 101.77 105.151 102.381 107.325 103.677C109.515 104.983 111.07 106.941 111.996 109.492H111.995C112.42 110.604 112.659 111.945 112.738 113.485L112.739 113.51V123.342Z" fill="#FFD847" stroke="#5121FF" stroke-width="1.97799"/>
<path d="M60.6465 104.242C62.7104 102.86 65.1075 102.169 67.8105 102.169H67.8389L67.8662 102.171C71.3449 102.367 74.195 103.198 76.3203 104.755C78.335 106.231 79.6188 108.302 80.1953 110.895L80.3018 111.42L80.3086 111.459L80.3125 111.498C80.4654 113.027 80.5447 114.243 80.5449 115.128L80.6025 129.553C80.6775 131.117 80.432 132.494 79.7578 133.594C79.0651 134.724 77.988 135.45 76.6318 135.81L76.6328 135.811C74.3021 136.471 72.2765 136.718 70.6025 136.468C70.3408 136.452 70.0098 136.379 69.7256 136.131C69.372 135.821 69.2734 135.409 69.2734 135.087V114.903C69.2734 112.872 68.8836 111.529 68.2637 110.712C67.6827 109.946 66.7945 109.507 65.416 109.507C63.6702 109.507 62.2526 110.152 61.1025 111.493V131.78C61.1575 133.072 60.9699 134.23 60.375 135.103C59.7347 136.042 58.7421 136.483 57.5889 136.531L57.5635 136.532H57.5371C53.9986 136.494 51.9726 136.476 51.4473 136.476H51.3926L51.3379 136.47C50.982 136.43 50.6235 136.289 50.335 136C50.0554 135.72 49.9151 135.376 49.8506 135.053L49.8311 134.957V112.452C49.8311 110.757 48.8644 109.186 46.4932 107.771L46.0107 107.482V106.652L46.0146 106.611C46.0547 106.13 46.2671 105.705 46.6279 105.384C46.9646 105.085 47.384 104.916 47.7998 104.818L47.8066 104.816L47.8135 104.815C53.5005 103.564 57.2017 102.829 58.8564 102.632L58.915 102.625H58.9736C59.3288 102.625 59.7259 102.717 60.0625 102.997C60.3969 103.276 60.5583 103.647 60.627 103.99L60.6465 104.087V104.242Z" fill="#FFD847" stroke="#5121FF" stroke-width="1.97799"/>
<path d="M117.499 79.959L116.934 80.1133C116.172 80.331 115.449 80.5834 114.766 80.8711L114.745 80.8799L114.724 80.8877C113.424 81.3666 112.524 82.0209 111.943 82.8086C111.377 83.6282 111.095 84.532 111.095 85.5479C111.095 86.619 111.365 87.3079 111.776 87.7549C112.232 88.1754 112.891 88.4355 113.869 88.4355C115.12 88.4355 116.081 88.0943 116.825 87.4697C117.531 86.8398 117.897 86.022 117.897 84.9209V79.8604C117.767 79.8915 117.634 79.9241 117.499 79.959ZM129.112 82.583C129.112 85.64 129.386 87.9359 129.892 89.5234C130.375 91.039 131.006 91.7265 131.631 91.9795C131.876 92.0004 132.164 92.0667 132.424 92.249C132.825 92.5298 132.989 92.9575 132.989 93.3584V93.5869C132.989 94.3899 132.348 94.8737 131.939 95.1191L131.703 95.2598H126.583C124.979 95.2597 123.563 94.8398 122.401 93.9424C121.623 93.342 120.998 92.5562 120.507 91.6143C119.708 92.6647 118.753 93.5152 117.635 94.1484C116.033 95.0562 114.157 95.4883 112.044 95.4883H112.039C108.324 95.4687 105.355 94.7187 103.302 93.0762C101.206 91.3995 100.222 88.9235 100.222 85.833V85.8262L100.229 85.5088C100.351 82.2445 102.039 79.5833 105.098 77.5537C108.061 75.5883 112.336 74.1904 117.84 73.2988V71.9326L117.82 71.3848C117.741 70.1599 117.447 69.3038 117.023 68.7324C116.569 68.1203 115.882 67.7236 114.835 67.6074H113.905C112.746 67.8284 111.945 68.3032 111.405 68.9766C110.842 69.6776 110.479 70.6989 110.41 72.1396C110.404 72.5327 110.334 73.0078 110.041 73.3984C109.699 73.8542 109.202 74.01 108.738 73.9922V73.9932H103.219C102.816 74.0145 102.424 73.8771 102.122 73.5752C101.837 73.2901 101.698 72.9259 101.62 72.6172L101.591 72.499V71.2363C101.591 68.9008 102.33 66.883 103.833 65.25C105.317 63.6378 107.484 62.4676 110.232 61.6768L110.237 61.6758L110.841 61.5186C112.273 61.1772 113.855 61.0107 115.579 61.0107C118.796 61.0108 121.524 61.622 123.698 62.918C125.888 64.2238 127.443 66.182 128.369 68.7324H128.368C128.793 69.8452 129.032 71.1853 129.111 72.7256L129.112 72.751V82.583Z" fill="#FFD847" stroke="#5121FF" stroke-width="1.97799"/>
<path d="M68.2803 61.6951L68.6328 61.7039C71.7594 61.8144 74.2307 62.9451 75.9209 65.1384C78.2383 62.8748 81.2464 61.7766 84.8613 61.8103V61.8093H85.3174C87.9721 61.8093 90.2679 62.3332 92.1494 63.4431C93.9229 64.4894 95.2695 66.0215 96.1963 67.9949L96.376 68.3953L96.4043 68.4617L96.4219 68.53C96.7342 69.7011 96.8921 70.7466 96.8545 71.6394L96.7979 90.0554V90.0886L96.7959 90.1208C96.683 91.7462 96.0098 93.0901 94.7607 94.0564C93.5493 94.9935 91.8783 95.5121 89.8623 95.7117L89.834 95.7146L89.8066 95.7156C88.8683 95.7547 87.9649 95.755 87.0977 95.7156L86.998 95.7117L86.9023 95.6873C86.5439 95.5976 86.1856 95.3847 85.96 94.9978C85.7719 94.6753 85.7371 94.3312 85.7539 94.0408L85.8115 73.1726V73.1648L85.8105 72.8728C85.7868 71.4471 85.4654 70.496 84.9766 69.8914C84.4856 69.2841 83.7089 68.8836 82.4814 68.8074C80.9971 68.9405 79.7644 69.7473 78.7793 71.4441L78.7236 91.823C78.7774 92.8049 78.6282 93.7291 78.1094 94.45C77.5529 95.2228 76.7049 95.5841 75.7578 95.657L75.7197 95.6599H69.4053L69.3447 95.6521C68.9092 95.5977 68.5024 95.3599 68.2686 94.9255C68.0852 94.5849 68.0613 94.2165 68.0791 93.9177L68.1357 73.3435V73.0271C68.113 71.5186 67.7981 70.5191 67.3252 69.8972C66.8584 69.2834 66.1321 68.9003 64.9697 68.8621C63.2485 68.9298 61.974 69.5531 61.0469 70.7136L60.9912 91.4675C61.0648 92.5909 60.9103 93.6356 60.3252 94.4207C59.6934 95.2682 58.7252 95.6023 57.6641 95.6023H51.2373L51.1416 95.5837C50.7591 95.5072 50.4023 95.3196 50.1289 95.0007C49.8658 94.6937 49.7342 94.3288 49.6758 93.9783L49.6621 93.8953V93.8103L49.7764 71.4646L49.7656 71.1824C49.6642 69.8659 48.8391 68.6083 46.9414 67.4441L46.5186 67.196L46.0469 66.9314L46.0146 66.3914C45.9809 65.8173 46.1586 65.2594 46.6045 64.8337C47.0033 64.4531 47.5293 64.2628 48.0518 64.1677C52.3492 63.217 55.8762 62.4929 58.6289 61.9958L58.7158 61.9802H58.8047C59.2327 61.9802 59.7719 62.1102 60.1299 62.5984C60.4339 63.013 60.4603 63.4963 60.4209 63.8738V63.8914C62.4202 62.4133 64.9249 61.6951 67.8701 61.6951H68.2803Z" fill="#FFD847" stroke="#5121FF" stroke-width="1.97799"/>
</svg>
