<svg width="32" height="32" viewBox="0 0 32 32" fill="none" xmlns="http://www.w3.org/2000/svg">
<circle cx="16" cy="16" r="16" fill="#BBFBFC"/>
<path d="M17.464 19.4019C17.3293 19.4403 17.201 19.4848 17.0802 19.5356L17.0734 19.5396V19.5386C16.8441 19.623 16.6849 19.7386 16.5822 19.8774L16.5167 19.9888C16.4603 20.1034 16.4318 20.227 16.4318 20.3618C16.4318 20.5493 16.4795 20.6705 16.5509 20.7495C16.6316 20.825 16.7478 20.8725 16.922 20.8726C17.1432 20.8726 17.3131 20.812 17.4445 20.7017C17.5693 20.5904 17.6339 20.446 17.6339 20.2515V19.3569L17.464 19.4019ZM19.6154 19.8384C19.6154 20.3785 19.6637 20.7844 19.7531 21.0649C19.8412 21.3413 19.9574 21.4614 20.0714 21.5024C20.112 21.5072 20.1582 21.517 20.2003 21.5464C20.2712 21.596 20.3009 21.6718 20.3009 21.7427V21.7827C20.3009 21.9246 20.1867 22.0099 20.1144 22.0532L20.0734 22.0786H19.1691C18.8856 22.0786 18.6351 22.0038 18.4298 21.8452C18.2917 21.7385 18.1827 21.5979 18.0958 21.4302C17.9542 21.6171 17.7864 21.7699 17.588 21.8823C17.305 22.0427 16.9729 22.1187 16.5997 22.1187H16.5988C15.9422 22.1152 15.4176 21.9831 15.0548 21.6929C14.6845 21.3966 14.5109 20.9587 14.5109 20.4126V20.4116L14.5265 20.1909C14.594 19.6887 14.884 19.2736 15.3722 18.9497C15.8957 18.6024 16.6515 18.3563 17.6241 18.1987V17.9565L17.6124 17.771C17.5914 17.6012 17.5438 17.4777 17.4796 17.3911C17.3991 17.2826 17.277 17.2131 17.0909 17.1929H16.9308C16.7249 17.2317 16.5822 17.3147 16.4865 17.4341C16.3871 17.558 16.3229 17.7391 16.3107 17.9937L16.3097 17.9927C16.3089 18.0621 16.2979 18.1462 16.2462 18.2153C16.1858 18.2959 16.0977 18.3219 16.0157 18.3188V18.3208H15.0382V18.3198C14.9677 18.323 14.8996 18.2994 14.8468 18.2466C14.8216 18.2213 14.8024 18.1928 14.7882 18.1636L14.7579 18.0776L14.7531 18.0571V17.8335C14.7531 17.421 14.8831 17.0644 15.1486 16.7759C15.4108 16.4911 15.7939 16.2847 16.2794 16.145L16.2804 16.144L16.4972 16.0923C16.7205 16.0482 16.9636 16.0269 17.2247 16.0269C17.7927 16.0269 18.2744 16.135 18.6583 16.3638C19.0454 16.5945 19.321 16.9405 19.4845 17.3911H19.4835C19.5587 17.5878 19.6014 17.8249 19.6154 18.0972V19.8384Z" fill="#FFD847" stroke="#5121FF" stroke-width="0.349489"/>
<path d="M10.4111 16.4645C10.7758 16.2201 11.1991 16.0973 11.6768 16.0973H11.6865L11.9121 16.1158C12.4254 16.171 12.8521 16.3136 13.1807 16.5543C13.5128 16.7977 13.7321 17.1326 13.8428 17.5485L13.8838 17.7321L13.8867 17.7457H13.8857C13.9128 18.0161 13.9267 18.2309 13.9268 18.3873L13.9375 20.9362H13.9365C13.9497 21.2123 13.9072 21.4557 13.7881 21.65C13.6651 21.8506 13.4735 21.9794 13.2324 22.0426L13.2314 22.0416C12.8186 22.1582 12.46 22.2024 12.1641 22.1569V22.1549C12.119 22.1512 12.0635 22.14 12.0156 22.0983C11.9532 22.0436 11.9356 21.9706 11.9355 21.9137V18.3473C11.9355 17.9885 11.8663 17.7514 11.7568 17.6071C11.6542 17.4718 11.4975 17.3942 11.2539 17.3942C10.9451 17.3942 10.6955 17.5091 10.4922 17.7467V21.3297H10.4912C10.5009 21.5579 10.4683 21.7625 10.3633 21.9166C10.2502 22.0824 10.0747 22.1601 9.87109 22.1686L9.8623 22.1696V22.1686C9.23785 22.1619 8.8795 22.1588 8.78613 22.1588H8.77637L8.7666 22.1578C8.70372 22.1508 8.63986 22.1258 8.58887 22.0748C8.5642 22.0501 8.54599 22.0223 8.53223 21.9938L8.50391 21.9078L8.5 21.8903V17.9137C8.49982 17.6143 8.32892 17.3366 7.91016 17.0865L7.8252 17.0358V16.8893L7.82617 16.8824L7.83691 16.8199C7.8535 16.7605 7.88687 16.708 7.93457 16.6656C7.99405 16.6128 8.06814 16.5823 8.1416 16.5651H8.14355L9.38672 16.3024C9.71213 16.238 9.94855 16.1967 10.0947 16.1793L10.1055 16.1783H10.1152C10.1779 16.1783 10.2482 16.1943 10.3076 16.2438C10.3667 16.293 10.3961 16.3589 10.4082 16.4196L10.4111 16.4362V16.4645Z" fill="#FFD847" stroke="#5121FF" stroke-width="0.349489"/>
<path d="M20.3568 12.2002C20.2221 12.2387 20.0938 12.2831 19.973 12.334L19.9662 12.3379V12.3369C19.7369 12.4214 19.5777 12.5369 19.475 12.6758L19.4095 12.7871C19.3531 12.9017 19.3246 13.0253 19.3246 13.1602C19.3246 13.3477 19.3723 13.4688 19.4437 13.5479C19.5245 13.6233 19.6407 13.6709 19.8148 13.6709C20.036 13.6709 20.2059 13.6104 20.3373 13.5C20.4621 13.3887 20.5267 13.2443 20.5267 13.0498V12.1553L20.3568 12.2002ZM22.5082 12.6367C22.5082 13.1769 22.5565 13.5828 22.6459 13.8633C22.734 14.1397 22.8502 14.2597 22.9642 14.3008C23.0048 14.3055 23.0511 14.3154 23.0931 14.3447C23.164 14.3944 23.1937 14.4702 23.1937 14.541V14.5811C23.1937 14.7229 23.0795 14.8082 23.0072 14.8516L22.9662 14.877H22.0619C21.7784 14.877 21.5279 14.8021 21.3226 14.6436C21.1845 14.5369 21.0756 14.3962 20.9886 14.2285C20.847 14.4154 20.6792 14.5682 20.4808 14.6807C20.1978 14.8411 19.8658 14.917 19.4926 14.917H19.4916C18.8351 14.9135 18.3104 14.7814 17.9476 14.4912C17.5773 14.1949 17.4037 13.757 17.4037 13.2109V13.21L17.4193 12.9893C17.4868 12.487 17.7768 12.0719 18.265 11.748C18.7885 11.4007 19.5444 11.1546 20.517 10.9971V10.7549L20.5052 10.5693C20.4843 10.3995 20.4366 10.276 20.3724 10.1895C20.2919 10.0809 20.1699 10.0115 19.9838 9.99121H19.8236C19.6177 10.0301 19.475 10.113 19.3793 10.2324C19.2799 10.3563 19.2158 10.5374 19.2035 10.792L19.2025 10.791C19.2017 10.8605 19.1908 10.9445 19.139 11.0137C19.0786 11.0942 18.9905 11.1203 18.9086 11.1172V11.1191H17.931V11.1182C17.8605 11.1213 17.7924 11.0977 17.7396 11.0449C17.6893 10.9946 17.6644 10.9305 17.6508 10.876L17.6459 10.8555V10.6318C17.6459 10.2193 17.7759 9.8627 18.0414 9.57422C18.3036 9.28939 18.6868 9.08309 19.1722 8.94336L19.1732 8.94238L19.39 8.89062C19.6133 8.8465 19.8564 8.8252 20.1176 8.8252C20.6855 8.82524 21.1672 8.93331 21.5511 9.16211C21.9382 9.39284 22.2138 9.7388 22.3773 10.1895H22.3763C22.4515 10.3861 22.4942 10.6233 22.5082 10.8955V12.6367Z" fill="#FFD847" stroke="#5121FF" stroke-width="0.349489"/>
<path d="M16.624 13.9565L16.7979 13.9683C16.7779 14.2555 16.6592 14.4928 16.4385 14.6636C16.2244 14.8291 15.9294 14.9213 15.5732 14.9565L15.5635 14.9575V14.9565C15.3977 14.9634 15.2382 14.9635 15.085 14.9565H15.0674L15.0508 14.9517C14.9876 14.9359 14.9237 14.8987 14.8838 14.8306C14.8505 14.7734 14.8456 14.7121 14.8486 14.6606H14.8477L14.8574 10.9741V10.9722L14.8486 10.7798C14.8292 10.6043 14.7791 10.4795 14.71 10.394C14.6231 10.2867 14.4858 10.216 14.2686 10.2026C14.006 10.2264 13.7884 10.3696 13.6143 10.6704L13.6055 14.269L13.6045 14.2681C13.6141 14.4418 13.5887 14.6053 13.4971 14.7329C13.3988 14.8695 13.2484 14.9339 13.0811 14.9468L13.0674 14.9478V14.9468H11.959L11.9482 14.9458C11.8713 14.9362 11.7991 14.8936 11.7578 14.8169C11.723 14.752 11.7201 14.6811 11.7246 14.6265L11.7344 11.0044V11.0024L11.7256 10.7983C11.7066 10.6135 11.6585 10.4829 11.5918 10.395C11.509 10.2862 11.3795 10.2188 11.1729 10.2124C10.8694 10.2248 10.6449 10.3353 10.4814 10.5405L10.4717 14.2085C10.4843 14.4061 10.4575 14.5898 10.3545 14.728C10.2429 14.8777 10.0721 14.9369 9.88477 14.937H8.74902L8.73145 14.9331C8.66401 14.9195 8.60094 14.8868 8.55273 14.8306C8.52939 14.8033 8.51193 14.7735 8.49902 14.7427L8.47266 14.6499L8.4707 14.6353V14.6206L8.49023 10.6724L8.48242 10.5728C8.45121 10.3746 8.32306 10.1847 8.05859 10.0063L7.91504 9.91748L7.83203 9.87061L7.82617 9.77588C7.82021 9.67456 7.85109 9.57567 7.92969 9.50049C7.98367 9.44896 8.05112 9.41658 8.12109 9.39697L8.19238 9.38135C8.94876 9.21408 9.56971 9.0861 10.0547 8.99854L10.0703 8.99658H10.0859C10.1615 8.99661 10.2571 9.01885 10.3203 9.10498C10.3735 9.17746 10.3777 9.26223 10.3711 9.32861V9.33447C10.7244 9.07311 11.1669 8.94582 11.6875 8.9458H11.7598L12.0029 8.96045C12.4706 9.01364 12.845 9.20982 13.1104 9.5542C13.5197 9.1544 14.0509 8.96138 14.6895 8.96729V8.96631H14.7705C15.2395 8.96633 15.6451 9.05832 15.9775 9.25439C16.2701 9.42697 16.4961 9.67493 16.6582 9.99072L16.7246 10.1294L16.7295 10.1411L16.7324 10.1538C16.7875 10.3605 16.8152 10.545 16.8086 10.7026L16.7988 13.9565V13.9683L16.624 13.9565Z" fill="#FFD847" stroke="#5121FF" stroke-width="0.349489"/>
</svg>
