<svg width="174" height="41" viewBox="0 0 174 41" fill="none" xmlns="http://www.w3.org/2000/svg">
<path d="M156.079 22.2803C155.746 22.3598 155.399 22.4501 155.04 22.5527C154.217 22.7879 153.436 23.0614 152.698 23.3721L152.677 23.3818L152.653 23.3896C151.25 23.9067 150.278 24.6125 149.65 25.4629C149.039 26.3476 148.735 27.3234 148.735 28.4199C148.735 29.5763 149.027 30.3202 149.47 30.8027C149.963 31.2568 150.675 31.5381 151.73 31.5381C153.079 31.5381 154.114 31.1699 154.916 30.498C155.682 29.8175 156.079 28.9342 156.079 27.7432V22.2803ZM168.185 25.2197C168.185 28.5197 168.481 30.9982 169.027 32.7119C169.548 34.3475 170.229 35.0899 170.904 35.3633C171.168 35.3858 171.48 35.4571 171.761 35.6543C172.195 35.9575 172.371 36.4196 172.371 36.8525V37.0986C172.371 37.9654 171.679 38.488 171.237 38.7529L170.983 38.9043H165.456C163.724 38.9043 162.196 38.4502 160.941 37.4814C160.102 36.8335 159.427 35.9862 158.897 34.9697C158.034 36.1036 157.002 37.0206 155.796 37.7041C154.066 38.6841 152.041 39.1514 149.76 39.1514H149.755C145.743 39.1302 142.54 38.3201 140.323 36.5469C138.06 34.7368 136.999 32.0638 136.999 28.7275V28.7207L137.006 28.3779C137.137 24.8541 138.959 21.981 142.261 19.79C145.46 17.6683 150.076 16.1598 156.017 15.1973V13.7217L156.01 13.4199C155.955 11.9423 155.626 10.9294 155.135 10.2686C154.645 9.60692 153.903 9.17772 152.77 9.05273H151.775C150.521 9.29081 149.654 9.80314 149.07 10.5312C148.463 11.288 148.071 12.3902 147.996 13.9453C147.99 14.3698 147.915 14.8828 147.598 15.3047C147.229 15.7966 146.692 15.9645 146.191 15.9453V15.9463H140.243C139.804 15.972 139.378 15.8234 139.05 15.4951C138.742 15.1872 138.591 14.7942 138.508 14.4609L138.475 14.333V12.9707C138.475 10.4497 139.274 8.2716 140.896 6.50879C142.498 4.76845 144.837 3.50505 147.803 2.65137L147.809 2.64941L148.462 2.47949C150.007 2.111 151.715 1.93262 153.577 1.93262C157.049 1.93264 159.994 2.59221 162.341 3.99121C164.7 5.39765 166.376 7.50504 167.376 10.249L167.54 10.7119C167.901 11.8201 168.109 13.1157 168.184 14.5781L168.185 14.6055V25.2197Z" fill="#FFD847" stroke="#6439FF" stroke-width="2.13527"/>
<path d="M111.95 4.5959C114.178 3.10461 116.767 2.36348 119.685 2.36348H119.715L119.744 2.36445C123.5 2.57663 126.577 3.47346 128.871 5.15449C131.046 6.74798 132.431 8.98356 133.054 11.7824L133.168 12.3498L133.176 12.3918L133.289 13.6096C133.383 14.7188 133.431 15.6354 133.432 16.3518L133.492 31.9211C133.574 33.6107 133.309 35.0988 132.581 36.2873C131.833 37.5072 130.671 38.2907 129.207 38.6789L129.208 38.6799C126.69 39.3932 124.502 39.6597 122.694 39.3889C122.412 39.3711 122.056 39.2929 121.751 39.0256C121.369 38.6916 121.264 38.2466 121.264 37.8986V16.1105C121.264 13.9173 120.842 12.4671 120.173 11.5852C119.546 10.7589 118.588 10.2844 117.1 10.2844C115.215 10.2844 113.684 10.9812 112.442 12.4299V34.3283C112.502 35.7234 112.3 36.9731 111.657 37.9152C110.966 38.929 109.894 39.4063 108.649 39.4582L108.622 39.4592L108.594 39.4582C104.774 39.4171 102.587 39.3967 102.02 39.3967H101.961L101.901 39.3908C101.517 39.3481 101.13 39.1955 100.818 38.884C100.517 38.5822 100.366 38.2099 100.296 37.8615L100.275 37.758V13.4631C100.275 11.7475 99.3575 10.1506 97.1338 8.69844L96.6719 8.40937L96.1514 8.09883V7.20234L96.1553 7.1584L96.1797 6.96601C96.258 6.52561 96.4766 6.13609 96.8174 5.8332C97.1807 5.51031 97.6333 5.32844 98.082 5.22285L98.0898 5.2209L98.0977 5.21992C104.236 3.86944 108.231 3.0762 110.018 2.86348L110.081 2.85566H110.145C110.528 2.85572 110.957 2.95419 111.32 3.25703C111.681 3.55789 111.856 3.95888 111.93 4.3293L111.95 4.43281V4.5959Z" fill="#FFD847" stroke="#6439FF" stroke-width="2.13527"/>
<path d="M79.5345 22.2803C79.2012 22.3598 78.8548 22.4501 78.4954 22.5527C77.6725 22.7879 76.8916 23.0614 76.1536 23.3721L76.1321 23.3818L76.1087 23.3896C74.7054 23.9067 73.7332 24.6125 73.1058 25.4629C72.4947 26.3476 72.1908 27.3234 72.1907 28.4199C72.1907 29.5763 72.4828 30.3202 72.9261 30.8027C73.419 31.2568 74.1305 31.5381 75.1859 31.5381C76.5348 31.5381 77.5693 31.1699 78.3714 30.498C79.1374 29.8175 79.5344 28.9342 79.5345 27.7432V22.2803ZM91.6409 25.2197C91.6409 28.5197 91.9366 30.9982 92.4827 32.7119C93.0039 34.3475 93.6847 35.0899 94.3597 35.3633C94.6237 35.3858 94.9353 35.4571 95.2171 35.6543C95.6503 35.9575 95.8265 36.4196 95.8265 36.8525V37.0986C95.8264 37.9654 95.1342 38.488 94.6927 38.7529L94.4388 38.9043H88.9114C87.1796 38.9043 85.6512 38.4502 84.3968 37.4814C83.5578 36.8335 82.8825 35.9862 82.3528 34.9697C81.49 36.1036 80.4575 37.0206 79.2513 37.7041C77.5219 38.6841 75.4963 39.1514 73.2161 39.1514H73.2103C69.199 39.1302 65.9951 38.3201 63.7786 36.5469C61.5161 34.7368 60.4544 32.0638 60.4544 28.7275V28.7207L60.4612 28.3779C60.5929 24.8541 62.4146 21.981 65.7171 19.79C68.9154 17.6683 73.5314 16.1598 79.473 15.1973V13.7217L79.4661 13.4199C79.4111 11.9423 79.0812 10.9294 78.5911 10.2686C78.1002 9.60692 77.3582 9.17772 76.2259 9.05273H75.2308C73.9766 9.29081 73.1097 9.80314 72.5257 10.5312C71.9189 11.288 71.5265 12.3902 71.4515 13.9453C71.446 14.3698 71.3704 14.8828 71.054 15.3047C70.6848 15.7966 70.1478 15.9645 69.6468 15.9453V15.9463H63.6985C63.2596 15.972 62.8334 15.8234 62.5052 15.4951C62.1975 15.1872 62.0465 14.7942 61.9632 14.4609L61.931 14.333V12.9707C61.931 10.4497 62.7293 8.2716 64.3519 6.50879C65.9539 4.76845 68.2926 3.50505 71.2591 2.65137L71.265 2.64941L71.9173 2.47949C73.463 2.111 75.1709 1.93262 77.0325 1.93262C80.5047 1.93264 83.4495 2.59221 85.7962 3.99121C88.1552 5.39765 89.8314 7.50504 90.8314 10.249L90.9954 10.7119C91.3567 11.8201 91.565 13.1156 91.64 14.5781L91.6409 14.6055V25.2197Z" fill="#FFD847" stroke="#6439FF" stroke-width="2.13527"/>
<path d="M25.9727 2.67131L26.3525 2.6801C29.7278 2.79932 32.3951 4.02048 34.2197 6.3881C36.6352 4.02834 39.7463 2.84063 43.4707 2.79435H44.3643C47.2301 2.79435 49.7081 3.35989 51.7393 4.55803C53.6539 5.6875 55.107 7.3417 56.1074 9.47209L56.3018 9.90373L56.332 9.97502L56.3516 10.0492C56.6886 11.313 56.8588 12.4411 56.8184 13.4047L56.8193 13.4057L56.7578 33.2865L56.7568 33.3217L56.7549 33.3569C56.633 35.1115 55.906 36.5618 54.5576 37.6049C53.2499 38.6164 51.4467 39.1765 49.2705 39.392L49.2402 39.3959L49.21 39.3969C48.1969 39.4391 47.2215 39.4395 46.2852 39.3969L46.1787 39.392L46.0752 39.3656C45.6883 39.2689 45.3013 39.0392 45.0576 38.6215C44.8547 38.2734 44.8177 37.9018 44.8359 37.5883L44.8975 15.061V15.0522L44.8965 14.7377C44.8709 13.1984 44.5238 12.1718 43.9961 11.519C43.4667 10.8642 42.6298 10.432 41.3076 10.349C39.7032 10.4915 38.3711 11.3614 37.3066 13.1947L37.2461 35.1781C37.3067 36.2442 37.1461 37.2486 36.583 38.0307C35.9823 38.8649 35.0663 39.2548 34.0439 39.3334L34.0039 39.3363H27.1865L27.1211 39.3276C26.651 39.2688 26.2124 39.0123 25.96 38.5434C25.764 38.1793 25.7368 37.786 25.7549 37.4653L25.8164 15.2455V15.2377L25.8154 14.9037C25.7909 13.2754 25.4519 12.1962 24.9414 11.5248C24.4374 10.8621 23.6528 10.4488 22.3975 10.4076C20.5399 10.481 19.1647 11.1541 18.1641 12.4067L18.1035 34.808C18.1834 36.0219 18.0161 37.1503 17.3838 37.9985C16.7018 38.9133 15.6582 39.2748 14.5127 39.2748H7.57422L7.4707 39.2543C7.0578 39.1717 6.67202 38.9687 6.37695 38.6244C6.09313 38.2931 5.95173 37.8991 5.88867 37.5209L5.87402 37.4311V37.3403L5.99707 13.2172L5.98535 12.9115C5.86771 11.3893 4.85395 9.93939 2.48047 8.60881L1.9707 8.32365L1.93652 7.74064C1.90007 7.12092 2.09184 6.51853 2.57324 6.059C3.00484 5.64713 3.57433 5.44165 4.13965 5.33928C8.77697 4.31344 12.5831 3.53189 15.5537 2.99553L15.6475 2.97892H15.7432C16.2052 2.97892 16.7874 3.11892 17.1738 3.64592C17.5013 4.09246 17.5304 4.61288 17.4883 5.01994V5.04142C19.6466 3.44594 22.3508 2.67131 25.5303 2.67131H25.9727Z" fill="#FFD847" stroke="#6439FF" stroke-width="2.13527"/>
</svg>
