<svg width="256" height="256" viewBox="0 0 256 256" fill="none" xmlns="http://www.w3.org/2000/svg">
<circle cx="128" cy="128" r="128" fill="#BBFBFC"/>
<path d="M143.825 171.688L143.021 171.907C142.208 172.139 141.427 172.4 140.677 172.688L139.937 172.986L139.908 172.998L139.877 173.01C138.022 173.693 136.738 174.627 135.911 175.753C135.112 176.915 134.716 178.197 134.716 179.637C134.716 181.156 135.098 182.136 135.679 182.771C136.329 183.372 137.268 183.744 138.661 183.744C140.433 183.744 141.794 183.264 142.849 182.384C143.865 181.486 144.391 180.319 144.391 178.744V171.548C144.205 171.592 144.016 171.638 143.825 171.688ZM160.34 175.42C160.34 179.768 160.73 183.033 161.45 185.291C162.135 187.442 163.03 188.422 163.917 188.783C164.266 188.812 164.679 188.907 165.052 189.168C165.623 189.567 165.855 190.176 165.855 190.746V191.07C165.855 192.212 164.942 192.9 164.361 193.249L164.027 193.45H156.745C154.463 193.45 152.449 192.852 150.796 191.575C149.691 190.721 148.801 189.605 148.103 188.266C146.966 189.759 145.607 190.968 144.018 191.868C141.74 193.159 139.071 193.774 136.067 193.774H136.059C130.774 193.747 126.552 192.68 123.632 190.344C120.652 187.959 119.253 184.437 119.253 180.042V180.033L119.263 179.581C119.437 174.939 121.836 171.154 126.187 168.268C130.401 165.472 136.482 163.484 144.31 162.216V160.272L144.3 159.875C144.228 157.928 143.793 156.592 143.147 155.722C142.5 154.85 141.524 154.286 140.033 154.121H138.717C137.067 154.435 135.925 155.11 135.157 156.068C134.357 157.065 133.84 158.518 133.742 160.567C133.734 161.126 133.635 161.801 133.218 162.356C132.732 163.005 132.024 163.227 131.364 163.202V163.203H123.52C122.944 163.235 122.386 163.04 121.955 162.609C121.55 162.204 121.351 161.685 121.242 161.246L121.2 161.078V159.283C121.2 155.961 122.251 153.091 124.389 150.769C126.5 148.476 129.58 146.811 133.489 145.687L133.495 145.685L133.922 145.569C136.071 145.011 138.466 144.74 141.094 144.74C145.669 144.74 149.548 145.609 152.64 147.452C155.748 149.305 157.955 152.081 159.273 155.696H159.274C159.884 157.284 160.225 159.199 160.338 161.4L160.34 161.437V175.42Z" fill="#FFD847" stroke="#5121FF" stroke-width="2.81314"/>
<path d="M86.2527 148.249C89.1875 146.284 92.5989 145.308 96.4421 145.308H96.4822L96.5212 145.31L97.4392 145.372C101.972 145.74 105.711 146.909 108.545 148.985C111.506 151.155 113.357 154.227 114.135 158.088L114.207 158.465L114.217 158.52L114.221 158.575C114.439 160.75 114.553 162.478 114.553 163.737L114.634 184.232C114.743 186.465 114.395 188.431 113.433 190.001C112.448 191.608 110.917 192.641 108.988 193.152L108.989 193.153C105.696 194.086 102.831 194.439 100.46 194.095C100.08 194.078 99.5864 193.977 99.1648 193.608C98.662 193.168 98.5222 192.582 98.5222 192.124V163.418C98.5222 160.529 97.9674 158.619 97.0857 157.457C96.2595 156.368 94.9972 155.743 93.0369 155.743C90.5536 155.743 88.5379 156.661 86.9021 158.569V187.421C86.9802 189.259 86.7131 190.905 85.8669 192.146C84.9564 193.482 83.545 194.109 81.905 194.178L81.8679 194.18H81.8308C76.7986 194.126 73.9171 194.099 73.1697 194.099H73.0916L73.0144 194.09C72.5082 194.034 71.9971 193.833 71.5867 193.423C71.1891 193.025 70.99 192.534 70.8982 192.075L70.8708 191.939V159.932C70.8708 157.671 69.6624 155.567 66.7322 153.653L66.1238 153.273L65.4382 152.864V151.683L65.4431 151.625C65.5001 150.941 65.802 150.335 66.3152 149.879C66.794 149.453 67.3908 149.214 67.9822 149.075L67.9919 149.072L68.0017 149.07C76.0897 147.291 81.3533 146.246 83.7068 145.966L83.7898 145.956H83.8738C84.3788 145.956 84.9439 146.085 85.4226 146.484C85.8982 146.881 86.1277 147.409 86.2253 147.897L86.2527 148.034V148.249Z" fill="#FFD847" stroke="#5121FF" stroke-width="2.81314"/>
<path d="M167.11 113.719L166.306 113.938C165.493 114.171 164.712 114.431 163.963 114.72L163.222 115.018L163.193 115.029L163.163 115.041C161.307 115.725 160.023 116.658 159.197 117.784C158.398 118.946 158.002 120.229 158.002 121.668C158.002 123.187 158.383 124.167 158.964 124.803C159.614 125.404 160.553 125.775 161.947 125.775C163.718 125.775 165.079 125.295 166.134 124.415C167.15 123.517 167.676 122.35 167.676 120.775V113.579C167.491 113.623 167.302 113.669 167.11 113.719ZM183.626 117.451C183.626 121.799 184.015 125.064 184.735 127.322C185.42 129.473 186.315 130.453 187.203 130.814C187.552 130.844 187.964 130.938 188.338 131.199C188.908 131.599 189.14 132.207 189.14 132.777V133.102C189.14 134.243 188.228 134.931 187.646 135.28L187.312 135.481H180.03C177.748 135.481 175.734 134.883 174.082 133.606C172.976 132.753 172.086 131.636 171.388 130.297C170.252 131.79 168.892 132.999 167.303 133.899C165.025 135.19 162.356 135.806 159.352 135.806H159.344C154.059 135.778 149.838 134.711 146.918 132.375C143.937 129.99 142.539 126.469 142.539 122.073V122.064L142.548 121.612C142.722 116.97 145.121 113.185 149.472 110.299C153.686 107.503 159.767 105.515 167.595 104.247V102.304L167.586 101.906C167.513 99.9588 167.078 98.6237 166.432 97.7529C165.786 96.8817 164.809 96.3171 163.318 96.1523H162.003C160.352 96.4663 159.211 97.141 158.442 98.0996C157.642 99.0967 157.126 100.55 157.027 102.599C157.02 103.158 156.92 103.832 156.504 104.388C156.017 105.036 155.309 105.259 154.649 105.233V105.234H146.805C146.23 105.266 145.671 105.071 145.241 104.641C144.835 104.235 144.637 103.717 144.527 103.277L144.485 103.109V101.314C144.485 97.9926 145.536 95.1225 147.674 92.7998C149.785 90.5071 152.866 88.8424 156.774 87.7178L156.781 87.7158L157.208 87.6006C159.357 87.0421 161.752 86.7715 164.38 86.7715C168.954 86.7715 172.834 87.6402 175.925 89.4834C179.033 91.3362 181.241 94.1127 182.558 97.7275H182.559C183.17 99.3149 183.511 101.23 183.624 103.432L183.626 103.468V117.451Z" fill="#FFD847" stroke="#5121FF" stroke-width="2.81314"/>
<path d="M97.1101 87.7449C101.795 87.7958 105.483 89.4063 107.976 92.6423C111.159 89.5336 115.256 87.968 120.163 87.907H121.341C125.116 87.907 128.38 88.6518 131.056 90.2302C133.579 91.7182 135.494 93.8973 136.812 96.7039L137.068 97.2742L137.108 97.3669L137.134 97.4656C137.578 99.1308 137.802 100.617 137.749 101.886L137.668 128.079V128.126L137.665 128.172C137.504 130.483 136.547 132.395 134.77 133.769C133.047 135.102 130.671 135.84 127.804 136.124L127.764 136.128L127.724 136.13C126.39 136.185 125.105 136.186 123.872 136.13L123.731 136.123L123.594 136.089C123.085 135.961 122.576 135.658 122.255 135.108C121.977 134.632 121.931 134.123 121.962 133.7L122.043 104.068V104.056L122.042 103.641C122.008 101.614 121.55 100.261 120.855 99.4011C120.157 98.5376 119.053 97.9685 117.307 97.8601C115.196 98.0494 113.443 99.1955 112.042 101.608L111.963 130.579C112.041 131.981 111.829 133.301 111.089 134.33C110.297 135.429 109.091 135.942 107.744 136.046L107.69 136.05H98.7097L98.6228 136.039C98.0035 135.961 97.4251 135.623 97.0925 135.006C96.8267 134.512 96.7949 133.977 96.823 133.548L96.9041 104.311V103.861C96.8718 101.716 96.4243 100.293 95.7517 99.4089C95.0878 98.536 94.0543 97.9926 92.4011 97.9382C89.9534 98.0346 88.1405 98.9198 86.822 100.57L86.7429 130.065C86.8511 131.671 86.6319 133.166 85.7957 134.288C84.8971 135.493 83.5207 135.969 82.0115 135.969H72.8718L72.7351 135.941C72.191 135.832 71.6825 135.566 71.2937 135.112C70.9664 134.73 70.7827 134.285 70.6863 133.845L70.6501 133.658L70.6306 133.54L70.6316 133.42L70.7937 101.639L70.7898 101.437C70.7104 99.3582 69.3913 97.3797 66.1599 95.5681L65.489 95.1912L65.4441 94.4236C65.3961 93.6072 65.6479 92.8141 66.282 92.2087C66.846 91.6704 67.589 91.4004 68.3279 91.2644L70.571 90.7722C75.6837 89.6584 79.9557 88.7915 83.3835 88.1726L83.5076 88.1501H83.6335C84.2423 88.1501 85.0092 88.3347 85.5183 89.0291C85.9502 89.6182 85.9882 90.305 85.9324 90.8416V90.8679C88.7759 88.7658 92.3382 87.7449 96.5271 87.7449H97.1101Z" fill="#FFD847" stroke="#5121FF" stroke-width="2.81314"/>
</svg>
