<svg width="512" height="512" viewBox="0 0 512 512" fill="none" xmlns="http://www.w3.org/2000/svg">
<g clip-path="url(#clip0_50_774)">
<circle cx="256" cy="256" r="256" fill="#BBFBFC"/>
<path d="M295.562 328.196C294.533 328.441 293.465 328.721 292.356 329.038C289.817 329.763 287.411 330.607 285.135 331.565L285.066 331.594L284.995 331.62C280.657 333.218 277.654 335.401 275.719 338.033C273.843 340.757 272.911 343.761 272.911 347.135C272.911 350.706 273.81 353.002 275.18 354.491C276.7 355.889 278.895 356.752 282.148 356.752C286.297 356.752 289.483 355.627 291.954 353.566C294.331 351.464 295.562 348.732 295.562 345.047V328.196ZM332.906 337.263C332.906 347.443 333.819 355.089 335.503 360.375C337.109 365.413 339.203 367.705 341.283 368.551C342.099 368.62 343.064 368.841 343.937 369.452C345.273 370.387 345.816 371.811 345.816 373.146V373.906C345.816 376.58 343.681 378.191 342.319 379.008L341.536 379.477H324.487C319.145 379.477 314.429 378.077 310.56 375.088C307.972 373.09 305.887 370.477 304.253 367.342C301.592 370.838 298.408 373.666 294.689 375.774C289.354 378.797 283.106 380.237 276.073 380.237H276.055C263.681 380.172 253.798 377.675 246.96 372.206C239.981 366.622 236.706 358.376 236.706 348.084V348.064C236.778 336.71 242.425 327.493 252.94 320.517C262.806 313.972 277.044 309.314 295.372 306.345V301.797L295.35 300.867C295.18 296.307 294.163 293.183 292.651 291.144C291.139 289.106 288.856 287.784 285.371 287.396H282.275C278.413 288.131 275.742 289.71 273.943 291.954C272.072 294.286 270.861 297.683 270.628 302.473C270.613 303.785 270.383 305.373 269.404 306.678C268.243 308.225 266.544 308.742 264.974 308.66H246.797C245.414 308.763 244.068 308.301 243.035 307.268C242.085 306.318 241.618 305.105 241.361 304.077L241.263 303.684V299.481C241.263 291.704 243.725 284.984 248.731 279.546C253.673 274.178 260.885 270.281 270.036 267.648L270.044 267.645L270.052 267.643C275.338 266.152 281.281 265.431 287.844 265.431C298.555 265.431 307.638 267.465 314.876 271.781C322.17 276.129 327.348 282.65 330.43 291.143H330.429C331.845 294.848 332.639 299.311 332.902 304.439L332.906 304.523V337.263Z" fill="#FFD847" stroke="#5121FF" stroke-width="6.58653"/>
<path d="M159.441 273.649C166.313 269.048 174.299 266.76 183.298 266.76H183.392L183.484 266.765C195.068 267.419 204.558 270.185 211.635 275.37C218.567 280.45 222.9 287.643 224.722 296.684L224.891 297.565L224.913 297.694L224.927 297.824C225.436 302.916 225.701 306.963 225.702 309.91L225.892 357.905C226.147 363.129 225.332 367.729 223.081 371.402C220.764 375.182 217.156 377.608 212.612 378.8L212.611 378.799C204.922 380.972 198.232 381.794 192.691 380.988C191.805 380.947 190.655 380.708 189.673 379.849C188.496 378.819 188.169 377.447 188.169 376.373V309.163C188.169 302.398 186.869 297.927 184.805 295.206C182.87 292.657 179.914 291.193 175.324 291.193C169.51 291.193 164.791 293.342 160.961 297.809V365.319C161.15 369.639 160.525 373.51 158.537 376.425C156.405 379.552 153.101 381.023 149.261 381.183L149.175 381.187L149.088 381.186C137.305 381.059 130.558 380.996 128.809 380.996H128.627L128.445 380.976C127.26 380.844 126.065 380.375 125.104 379.414C124.289 378.6 123.83 377.619 123.584 376.666L123.491 376.26L123.428 375.941V301C123.428 295.355 120.208 290.126 112.312 285.411L110.707 284.453V281.687L110.718 281.551L110.75 281.252C110.942 279.773 111.635 278.465 112.762 277.464C113.883 276.468 115.279 275.906 116.663 275.58L116.71 275.571L123.501 274.088C138.622 270.82 148.66 268.876 153.481 268.302L153.675 268.279H153.87C155.053 268.279 156.376 268.582 157.497 269.517C158.611 270.445 159.149 271.682 159.378 272.824L159.441 273.145V273.649Z" fill="#FFD847" stroke="#5121FF" stroke-width="6.58653"/>
<path d="M350.081 192.472C349.052 192.717 347.984 192.997 346.875 193.313C344.336 194.039 341.93 194.882 339.654 195.841L339.585 195.87L339.515 195.896C335.176 197.494 332.173 199.677 330.238 202.309C328.362 205.033 327.43 208.036 327.43 211.411C327.43 214.981 328.329 217.278 329.699 218.767C331.219 220.165 333.415 221.028 336.667 221.028C340.816 221.028 344.002 219.903 346.474 217.842C348.85 215.74 350.081 213.008 350.081 209.323V192.472ZM387.425 201.539C387.425 211.719 388.338 219.365 390.022 224.651C391.628 229.689 393.723 231.981 395.802 232.827C396.618 232.896 397.583 233.117 398.456 233.728C399.792 234.663 400.335 236.087 400.335 237.422V238.182C400.335 240.856 398.2 242.467 396.838 243.284L396.056 243.753H379.006C373.664 243.753 368.948 242.352 365.079 239.364C362.491 237.366 360.406 234.753 358.772 231.618C356.111 235.114 352.927 237.942 349.208 240.05C343.873 243.073 337.625 244.513 330.592 244.513H330.574C318.2 244.448 308.317 241.951 301.479 236.481C294.5 230.898 291.225 222.652 291.225 212.36V212.34C291.297 200.986 296.944 191.769 307.459 184.793C317.325 178.248 331.563 173.59 349.891 170.621V166.073L349.869 165.143C349.699 160.583 348.682 157.458 347.17 155.42C345.658 153.382 343.375 152.06 339.891 151.672H336.794C332.932 152.407 330.261 153.986 328.462 156.229C326.591 158.562 325.38 161.958 325.147 166.749C325.132 168.061 324.902 169.648 323.923 170.954C322.762 172.501 321.064 173.018 319.493 172.936H301.316C299.933 173.039 298.587 172.577 297.554 171.544C296.604 170.594 296.137 169.381 295.88 168.353L295.782 167.96V163.757C295.782 155.979 298.244 149.26 303.25 143.822C308.192 138.454 315.404 134.557 324.555 131.924L324.563 131.921L324.571 131.919C329.857 130.428 335.8 129.707 342.363 129.707C353.074 129.707 362.157 131.741 369.395 136.057C376.689 140.405 381.867 146.926 384.949 155.419H384.948C386.364 159.124 387.158 163.587 387.421 168.715L387.425 168.799V201.539Z" fill="#FFD847" stroke="#5121FF" stroke-width="6.58653"/>
<path d="M184.861 131.986C195.828 132.105 204.466 135.874 210.304 143.45C218.02 135.912 228.038 132.254 240.075 132.367V132.366H241.595L242.42 132.371C250.911 132.476 258.272 134.226 264.342 137.806C270.445 141.406 275.029 146.733 278.122 153.625L278.417 154.296L278.511 154.515L278.571 154.746C279.617 158.665 280.144 162.162 280.012 165.145L279.822 226.422L279.821 226.532L279.814 226.64C279.439 232.052 277.197 236.526 273.038 239.744C269.004 242.864 263.441 244.593 256.728 245.257L256.635 245.267L256.541 245.271C253.416 245.401 250.409 245.401 247.521 245.27L247.191 245.255L246.871 245.175C245.678 244.877 244.485 244.169 243.733 242.88C243.083 241.765 242.976 240.571 243.048 239.582L243.237 170.205V170.176C243.296 164.885 242.193 161.426 240.457 159.278C238.821 157.254 236.232 155.922 232.14 155.669C227.204 156.115 223.1 158.797 219.823 164.437L219.636 232.209C219.83 235.516 219.337 238.633 217.592 241.057C215.739 243.631 212.914 244.832 209.761 245.075L209.635 245.083H188.608L188.404 245.058C186.954 244.877 185.6 244.086 184.821 242.64C184.2 241.485 184.125 240.234 184.19 239.23L184.381 170.774V170.748C184.44 165.146 183.362 161.506 181.683 159.296C180.126 157.249 177.7 155.976 173.819 155.852C168.097 156.081 163.859 158.155 160.775 162.015L160.59 231.073C160.843 234.833 160.328 238.332 158.37 240.958C156.266 243.781 153.045 244.894 149.512 244.894H128.111L127.791 244.831C126.517 244.576 125.328 243.952 124.418 242.89C123.542 241.868 123.105 240.651 122.91 239.484L122.864 239.207L122.866 238.926L123.245 164.517L123.236 164.045C123.057 159.335 120.16 154.843 113.116 150.714L112.397 150.302L110.826 149.421L110.721 147.624C110.608 145.712 111.199 143.854 112.684 142.437C114.013 141.168 115.768 140.534 117.51 140.218C131.817 137.053 143.559 134.642 152.724 132.987L153.015 132.935H153.31C154.735 132.935 156.529 133.367 157.721 134.993C158.734 136.375 158.822 137.987 158.69 139.245V139.296C165.348 134.375 173.69 131.986 183.497 131.986H184.861Z" fill="#FFD847" stroke="#5121FF" stroke-width="6.58653"/>
</g>
<defs>
<clipPath id="clip0_50_774">
<rect width="512" height="512" rx="7.40332" fill="white"/>
</clipPath>
</defs>
</svg>
